<svg width="351" height="151" viewBox="0 0 351 151" fill="none" xmlns="http://www.w3.org/2000/svg">
<rect x="19.25" y="0.25" width="311.5" height="38.5" rx="11.75" fill="white"/>
<path d="M32.17 23H33.223V15.603H33.249C34.315 17.28 38.033 23 38.033 23H39.229V13.9H38.176V21.297H38.15C37.175 19.763 33.366 13.9 33.366 13.9H32.17V23ZM40.9665 19.932C40.9665 21.921 42.1365 23.156 43.7225 23.156C44.7495 23.156 45.3345 22.636 45.6725 22.077V23H46.6995V16.864H45.6725V17.787C45.3605 17.228 44.7495 16.708 43.7225 16.708C42.1365 16.708 40.9665 17.943 40.9665 19.932ZM43.8395 17.605C44.5285 17.605 45.6075 18.06 45.6075 19.529V20.335C45.6075 21.804 44.5415 22.259 43.8395 22.259C42.7605 22.259 42.0975 21.258 42.0975 19.932C42.0975 18.606 42.7605 17.605 43.8395 17.605ZM51.2582 22.051C51.0892 22.168 50.8682 22.246 50.6472 22.246C50.2572 22.246 50.0102 21.986 50.0102 21.544V17.696H51.4402V16.864H50.0102V14.615L48.9182 15.109V16.864H47.8782V17.696H48.9182V21.648C48.9182 22.454 49.4252 23.156 50.5042 23.156C50.9462 23.156 51.3622 23.052 51.6092 22.909L51.2582 22.051ZM52.8056 14.472C52.8056 14.849 53.1046 15.174 53.5206 15.174C53.9366 15.174 54.2356 14.849 54.2356 14.472C54.2356 14.043 53.9366 13.757 53.5206 13.757C53.1046 13.757 52.8056 14.043 52.8056 14.472ZM52.9746 23H54.0666V16.864H52.9746V23ZM58.6314 16.708C56.7594 16.708 55.6804 18.073 55.6804 19.932C55.6804 21.791 56.7594 23.156 58.6314 23.156C60.5034 23.156 61.5824 21.791 61.5824 19.932C61.5824 18.073 60.5034 16.708 58.6314 16.708ZM58.6314 22.285C57.4094 22.285 56.8114 21.219 56.8114 19.932C56.8114 18.645 57.4094 17.579 58.6314 17.579C59.8534 17.579 60.4514 18.645 60.4514 19.932C60.4514 21.219 59.8534 22.285 58.6314 22.285ZM63.1943 23H64.2863V19.659C64.2863 18.372 65.0663 17.605 65.9373 17.605C66.5613 17.605 67.2503 17.982 67.2503 18.918V23H68.3423V18.749C68.3423 17.384 67.3543 16.708 66.1583 16.708C65.2483 16.708 64.6503 17.124 64.2213 17.787V16.864H63.1943V23ZM69.8865 19.932C69.8865 21.921 71.0565 23.156 72.6425 23.156C73.6695 23.156 74.2545 22.636 74.5925 22.077V23H75.6195V16.864H74.5925V17.787C74.2805 17.228 73.6695 16.708 72.6425 16.708C71.0565 16.708 69.8865 17.943 69.8865 19.932ZM72.7595 17.605C73.4485 17.605 74.5275 18.06 74.5275 19.529V20.335C74.5275 21.804 73.4615 22.259 72.7595 22.259C71.6805 22.259 71.0175 21.258 71.0175 19.932C71.0175 18.606 71.6805 17.605 72.7595 17.605ZM77.705 23H78.797V13.9H77.705V23ZM84.0684 23H85.1994V13.9H84.0684V23ZM87.5343 23H90.6023C93.1503 23 94.7233 21.31 94.7233 18.45C94.7233 15.59 93.1503 13.9 90.6023 13.9H87.5343V23ZM93.5533 18.45C93.5533 20.621 92.5913 22.09 90.4073 22.09H88.6653V14.81H90.4073C92.5913 14.81 93.5533 16.279 93.5533 18.45ZM99.671 23H100.724V15.603H100.75C101.816 17.28 105.534 23 105.534 23H106.73V13.9H105.677V21.297H105.651C104.676 19.763 100.867 13.9 100.867 13.9H99.671V23ZM113.967 16.864H112.875V20.205C112.875 21.492 112.095 22.259 111.25 22.259C110.626 22.259 109.963 21.882 109.963 20.946V16.864H108.871V21.115C108.871 22.48 109.859 23.156 111.029 23.156C111.939 23.156 112.511 22.74 112.94 22.077V23H113.967V16.864ZM116.045 23H117.137V19.659C117.137 18.372 117.878 17.605 118.671 17.605C119.256 17.605 119.867 17.982 119.867 18.918V23H120.959V19.659C120.959 18.372 121.7 17.605 122.506 17.605C123.091 17.605 123.689 17.982 123.689 18.918V23H124.781V18.749C124.781 17.384 123.858 16.708 122.753 16.708C121.843 16.708 121.102 17.267 120.764 17.826C120.465 17.111 119.776 16.708 118.918 16.708C118.047 16.708 117.475 17.124 117.072 17.787V16.864H116.045V23ZM129.84 16.708C128.878 16.708 128.28 17.15 127.89 17.644V13.9H126.798V23H127.825V22.077C128.176 22.636 128.774 23.156 129.84 23.156C131.465 23.156 132.661 21.921 132.661 19.932C132.661 17.943 131.465 16.708 129.84 16.708ZM127.89 19.516C127.89 18.125 128.917 17.605 129.723 17.605C130.841 17.605 131.53 18.606 131.53 19.932C131.53 21.258 130.841 22.259 129.723 22.259C128.917 22.259 127.89 21.739 127.89 20.348V19.516ZM138.394 21.206C138.082 21.908 137.692 22.311 136.847 22.311C135.599 22.311 135.079 21.284 135.027 20.127H139.564V19.763C139.564 18.177 138.667 16.708 136.795 16.708C135.014 16.708 133.909 18.073 133.909 19.919C133.909 21.791 134.988 23.156 136.834 23.156C138.108 23.156 138.888 22.532 139.356 21.596L138.394 21.206ZM136.769 17.553C137.718 17.553 138.394 18.229 138.446 19.308H135.066C135.17 18.307 135.794 17.553 136.769 17.553ZM144.642 16.851C144.421 16.747 144.135 16.708 143.888 16.708C143.108 16.708 142.406 17.085 142.094 17.826V16.864H141.067V23H142.159V19.685C142.159 18.437 142.861 17.605 143.693 17.605C143.992 17.605 144.226 17.709 144.395 17.865L144.642 16.851Z" fill="black"/>
<path d="M315.646 17.6464C315.842 17.4512 316.158 17.4512 316.354 17.6464C316.549 17.8417 316.549 18.1583 316.354 18.3536L313.354 21.3536C313.164 21.5428 312.859 21.5495 312.662 21.3686L309.662 18.6186C309.459 18.432 309.445 18.1157 309.631 17.9121C309.818 17.7086 310.134 17.6948 310.338 17.8814L312.985 20.3079L315.646 17.6464Z" fill="black"/>
<rect x="19.25" y="0.25" width="311.5" height="38.5" rx="11.75" stroke="#D4D4D4" stroke-width="0.5"/>
<g filter="url(#filter0_d)">
<rect x="20" y="39" width="311" height="88" rx="8" fill="#FDFDFD"/>
<path d="M41.17 70H42.223V62.603H42.249C43.315 64.28 47.033 70 47.033 70H48.229V60.9H47.176V68.297H47.15C46.175 66.763 42.366 60.9 42.366 60.9H41.17V70ZM49.7665 66.932C49.7665 68.921 50.9365 70.156 52.5225 70.156C53.5495 70.156 54.1345 69.636 54.4725 69.077V70H55.4995V63.864H54.4725V64.787C54.1605 64.228 53.5495 63.708 52.5225 63.708C50.9365 63.708 49.7665 64.943 49.7665 66.932ZM52.6395 64.605C53.3285 64.605 54.4075 65.06 54.4075 66.529V67.335C54.4075 68.804 53.3415 69.259 52.6395 69.259C51.5605 69.259 50.8975 68.258 50.8975 66.932C50.8975 65.606 51.5605 64.605 52.6395 64.605ZM59.8582 69.051C59.6892 69.168 59.4682 69.246 59.2472 69.246C58.8572 69.246 58.6102 68.986 58.6102 68.544V64.696H60.0402V63.864H58.6102V61.615L57.5182 62.109V63.864H56.4782V64.696H57.5182V68.648C57.5182 69.454 58.0252 70.156 59.1042 70.156C59.5462 70.156 59.9622 70.052 60.2092 69.909L59.8582 69.051ZM61.2056 61.472C61.2056 61.849 61.5046 62.174 61.9206 62.174C62.3366 62.174 62.6356 61.849 62.6356 61.472C62.6356 61.043 62.3366 60.757 61.9206 60.757C61.5046 60.757 61.2056 61.043 61.2056 61.472ZM61.3746 70H62.4666V63.864H61.3746V70ZM66.8314 63.708C64.9594 63.708 63.8804 65.073 63.8804 66.932C63.8804 68.791 64.9594 70.156 66.8314 70.156C68.7034 70.156 69.7824 68.791 69.7824 66.932C69.7824 65.073 68.7034 63.708 66.8314 63.708ZM66.8314 69.285C65.6094 69.285 65.0114 68.219 65.0114 66.932C65.0114 65.645 65.6094 64.579 66.8314 64.579C68.0534 64.579 68.6514 65.645 68.6514 66.932C68.6514 68.219 68.0534 69.285 66.8314 69.285ZM71.1943 70H72.2863V66.659C72.2863 65.372 73.0663 64.605 73.9373 64.605C74.5613 64.605 75.2503 64.982 75.2503 65.918V70H76.3423V65.749C76.3423 64.384 75.3543 63.708 74.1583 63.708C73.2483 63.708 72.6503 64.124 72.2213 64.787V63.864H71.1943V70ZM77.6865 66.932C77.6865 68.921 78.8565 70.156 80.4425 70.156C81.4695 70.156 82.0545 69.636 82.3925 69.077V70H83.4195V63.864H82.3925V64.787C82.0805 64.228 81.4695 63.708 80.4425 63.708C78.8565 63.708 77.6865 64.943 77.6865 66.932ZM80.5595 64.605C81.2485 64.605 82.3275 65.06 82.3275 66.529V67.335C82.3275 68.804 81.2615 69.259 80.5595 69.259C79.4805 69.259 78.8175 68.258 78.8175 66.932C78.8175 65.606 79.4805 64.605 80.5595 64.605ZM85.305 70H86.397V60.9H85.305V70ZM91.2684 70H92.3994V60.9H91.2684V70ZM94.5343 70H97.6023C100.15 70 101.723 68.31 101.723 65.45C101.723 62.59 100.15 60.9 97.6023 60.9H94.5343V70ZM100.553 65.45C100.553 67.621 99.5913 69.09 97.4073 69.09H95.6653V61.81H97.4073C99.5913 61.81 100.553 63.279 100.553 65.45ZM106.271 70H107.324V62.603H107.35C108.416 64.28 112.134 70 112.134 70H113.33V60.9H112.277V68.297H112.251C111.276 66.763 107.467 60.9 107.467 60.9H106.271V70ZM120.367 63.864H119.275V67.205C119.275 68.492 118.495 69.259 117.65 69.259C117.026 69.259 116.363 68.882 116.363 67.946V63.864H115.271V68.115C115.271 69.48 116.259 70.156 117.429 70.156C118.339 70.156 118.911 69.74 119.34 69.077V70H120.367V63.864ZM122.245 70H123.337V66.659C123.337 65.372 124.078 64.605 124.871 64.605C125.456 64.605 126.067 64.982 126.067 65.918V70H127.159V66.659C127.159 65.372 127.9 64.605 128.706 64.605C129.291 64.605 129.889 64.982 129.889 65.918V70H130.981V65.749C130.981 64.384 130.058 63.708 128.953 63.708C128.043 63.708 127.302 64.267 126.964 64.826C126.665 64.111 125.976 63.708 125.118 63.708C124.247 63.708 123.675 64.124 123.272 64.787V63.864H122.245V70ZM135.84 63.708C134.878 63.708 134.28 64.15 133.89 64.644V60.9H132.798V70H133.825V69.077C134.176 69.636 134.774 70.156 135.84 70.156C137.465 70.156 138.661 68.921 138.661 66.932C138.661 64.943 137.465 63.708 135.84 63.708ZM133.89 66.516C133.89 65.125 134.917 64.605 135.723 64.605C136.841 64.605 137.53 65.606 137.53 66.932C137.53 68.258 136.841 69.259 135.723 69.259C134.917 69.259 133.89 68.739 133.89 67.348V66.516ZM144.194 68.206C143.882 68.908 143.492 69.311 142.647 69.311C141.399 69.311 140.879 68.284 140.827 67.127H145.364V66.763C145.364 65.177 144.467 63.708 142.595 63.708C140.814 63.708 139.709 65.073 139.709 66.919C139.709 68.791 140.788 70.156 142.634 70.156C143.908 70.156 144.688 69.532 145.156 68.596L144.194 68.206ZM142.569 64.553C143.518 64.553 144.194 65.229 144.246 66.308H140.866C140.97 65.307 141.594 64.553 142.569 64.553ZM150.242 63.851C150.021 63.747 149.735 63.708 149.488 63.708C148.708 63.708 148.006 64.085 147.694 64.826V63.864H146.667V70H147.759V66.685C147.759 65.437 148.461 64.605 149.293 64.605C149.592 64.605 149.826 64.709 149.995 64.865L150.242 63.851Z" fill="#1A1818"/>
<path d="M40.208 92.9L43.523 102H45.031L48.398 92.9H46.825C46.825 92.9 45.005 97.97 44.342 100.102H44.316C43.653 97.97 41.846 92.9 41.846 92.9H40.208ZM51.0687 95.669C49.1707 95.669 47.9877 96.982 47.9877 98.919C47.9877 100.856 49.1707 102.169 51.0687 102.169C52.9797 102.169 54.1627 100.856 54.1627 98.919C54.1627 96.982 52.9797 95.669 51.0687 95.669ZM51.0687 101.038C50.0027 101.038 49.4957 100.089 49.4957 98.919C49.4957 97.749 50.0027 96.8 51.0687 96.8C52.1607 96.8 52.6547 97.749 52.6547 98.919C52.6547 100.089 52.1607 101.038 51.0687 101.038ZM58.3043 100.752C58.1093 100.856 57.9143 100.96 57.6543 100.96C57.3033 100.96 57.0693 100.765 57.0693 100.232V96.93H58.4603V95.838H57.0693V93.407L55.6003 94.083V95.838H54.5603V96.93H55.6003V100.414C55.6003 101.545 56.3023 102.169 57.4463 102.169C57.9273 102.169 58.3953 102.065 58.7073 101.909L58.3043 100.752ZM63.5855 100.141C63.3385 100.674 62.9745 101.064 62.2205 101.064C61.1285 101.064 60.7255 100.18 60.6865 99.257H65.0805V98.841C65.0805 97.164 64.1575 95.669 62.1815 95.669C60.3745 95.669 59.1785 96.969 59.1785 98.906C59.1785 100.869 60.3485 102.169 62.2335 102.169C63.5205 102.169 64.3785 101.571 64.8595 100.648L63.5855 100.141ZM62.1685 96.748C62.9875 96.748 63.5595 97.307 63.5985 98.282H60.7125C60.7905 97.385 61.2975 96.748 62.1685 96.748ZM70.2286 95.812C69.9816 95.708 69.6956 95.669 69.4486 95.669C68.6036 95.669 67.9666 96.059 67.6286 96.839V95.838H66.2376V102H67.7196V98.893C67.7196 97.567 68.4996 96.943 69.2146 96.943C69.4746 96.943 69.7476 97.021 69.9296 97.177L70.2286 95.812ZM73.8637 102H75.3977V92.9H73.8637V102ZM77.3073 102H80.5313C83.1963 102 84.8213 100.323 84.8213 97.45C84.8213 94.577 83.1963 92.9 80.5313 92.9H77.3073V102ZM83.2353 97.45C83.2353 99.426 82.3773 100.739 80.4143 100.739H78.8543V94.161H80.4143C82.3773 94.161 83.2353 95.474 83.2353 97.45Z" fill="#1A1818"/>
</g>
<defs>
<filter id="filter0_d" x="0" y="23" width="351" height="128" filterUnits="userSpaceOnUse" color-interpolation-filters="sRGB">
<feFlood flood-opacity="0" result="BackgroundImageFix"/>
<feColorMatrix in="SourceAlpha" type="matrix" values="0 0 0 0 0 0 0 0 0 0 0 0 0 0 0 0 0 0 127 0"/>
<feOffset dy="4"/>
<feGaussianBlur stdDeviation="10"/>
<feColorMatrix type="matrix" values="0 0 0 0 0 0 0 0 0 0 0 0 0 0 0 0 0 0 0.2 0"/>
<feBlend mode="normal" in2="BackgroundImageFix" result="effect1_dropShadow"/>
<feBlend mode="normal" in="SourceGraphic" in2="effect1_dropShadow" result="shape"/>
</filter>
</defs>
</svg>
