<svg width="312" height="62" viewBox="0 0 312 62" fill="none" xmlns="http://www.w3.org/2000/svg">
<rect x="0.25" y="0.25" width="311.5" height="61.5" rx="11.75" fill="white"/>
<path d="M16.355 19.542C18.318 19.542 19.696 18.645 19.696 16.682C19.696 14.719 18.383 13.9 16.355 13.9H13.053V23H14.587V19.542H16.355ZM18.136 16.682C18.136 17.8 17.473 18.294 16.121 18.294H14.587V15.161H16.121C17.486 15.161 18.136 15.551 18.136 16.682ZM20.34 19.919C20.34 21.921 21.51 23.169 23.044 23.169C24.084 23.169 24.682 22.649 25.007 22.09V23H26.424V16.838H25.007V17.722C24.695 17.124 24.032 16.669 23.096 16.669C21.536 16.669 20.34 17.917 20.34 19.919ZM23.395 17.839C24.071 17.839 24.955 18.333 24.955 19.633V20.205C24.955 21.505 24.058 21.999 23.356 21.999C22.433 21.999 21.861 21.115 21.861 19.919C21.861 18.736 22.446 17.839 23.395 17.839ZM29.4153 18.476C29.4153 17.995 29.8703 17.735 30.4423 17.735C31.1313 17.735 31.5213 18.073 31.5993 18.658L33.0293 18.359C32.8603 17.306 31.8203 16.669 30.4683 16.669C29.1423 16.669 27.9333 17.28 27.9333 18.58C27.9333 19.776 28.8693 20.244 30.2733 20.452C31.3003 20.608 31.6383 20.803 31.6383 21.284C31.6383 21.83 31.1703 22.09 30.4813 22.09C29.7403 22.09 29.2593 21.791 29.1943 21.102L27.7643 21.31C27.9073 22.519 28.9473 23.169 30.4683 23.169C32.0673 23.169 33.1203 22.415 33.1203 21.18C33.1203 19.88 31.9763 19.477 30.6893 19.295C29.9353 19.178 29.4153 19.022 29.4153 18.476ZM35.6614 18.476C35.6614 17.995 36.1164 17.735 36.6884 17.735C37.3774 17.735 37.7674 18.073 37.8454 18.658L39.2754 18.359C39.1064 17.306 38.0664 16.669 36.7144 16.669C35.3884 16.669 34.1794 17.28 34.1794 18.58C34.1794 19.776 35.1154 20.244 36.5194 20.452C37.5464 20.608 37.8844 20.803 37.8844 21.284C37.8844 21.83 37.4164 22.09 36.7274 22.09C35.9864 22.09 35.5054 21.791 35.4404 21.102L34.0104 21.31C34.1534 22.519 35.1934 23.169 36.7144 23.169C38.3134 23.169 39.3664 22.415 39.3664 21.18C39.3664 19.88 38.2224 19.477 36.9354 19.295C36.1814 19.178 35.6614 19.022 35.6614 18.476ZM44.0404 16.838C44.0274 16.838 42.9354 20.608 42.7274 21.505H42.7014C42.5324 20.543 41.4274 16.838 41.4274 16.838H39.9714L41.8564 23H43.3904C43.3904 23 44.5474 18.827 44.6384 18.45C44.7294 18.827 45.8994 23 45.8994 23H47.4334L49.3184 16.838H47.9534C47.9534 16.838 46.8744 20.504 46.6794 21.505H46.6534C46.4714 20.66 45.3534 16.838 45.3534 16.838H44.0404ZM53.0646 16.669C51.1666 16.669 49.9836 17.982 49.9836 19.919C49.9836 21.856 51.1666 23.169 53.0646 23.169C54.9756 23.169 56.1586 21.856 56.1586 19.919C56.1586 17.982 54.9756 16.669 53.0646 16.669ZM53.0646 22.038C51.9986 22.038 51.4916 21.089 51.4916 19.919C51.4916 18.749 51.9986 17.8 53.0646 17.8C54.1566 17.8 54.6506 18.749 54.6506 19.919C54.6506 21.089 54.1566 22.038 53.0646 22.038ZM61.5891 16.812C61.3421 16.708 61.0561 16.669 60.8091 16.669C59.9641 16.669 59.3271 17.059 58.9891 17.839V16.838H57.5981V23H59.0801V19.893C59.0801 18.567 59.8601 17.943 60.5751 17.943C60.8351 17.943 61.1081 18.021 61.2901 18.177L61.5891 16.812ZM64.8524 16.669C63.2534 16.669 62.0314 17.917 62.0314 19.919C62.0314 21.921 63.2274 23.169 64.8004 23.169C65.8664 23.169 66.4904 22.649 66.8284 22.09V23H68.2324V13.9H66.7634V17.618C66.3994 17.098 65.7624 16.669 64.8524 16.669ZM66.7634 20.244C66.7634 21.544 65.8274 21.999 65.1124 21.999C64.1504 21.999 63.5524 21.115 63.5524 19.919C63.5524 18.736 64.1634 17.839 65.1514 17.839C65.8534 17.839 66.7634 18.294 66.7634 19.594V20.244Z" fill="black"/>
<path d="M12.845 41.762C12.845 42.62 13.495 43.257 14.405 43.257C15.315 43.257 15.965 42.62 15.965 41.762C15.965 40.878 15.315 40.241 14.405 40.241C13.495 40.241 12.845 40.878 12.845 41.762ZM17.6565 41.762C17.6565 42.62 18.3065 43.257 19.2165 43.257C20.1265 43.257 20.7765 42.62 20.7765 41.762C20.7765 40.878 20.1265 40.241 19.2165 40.241C18.3065 40.241 17.6565 40.878 17.6565 41.762ZM22.468 41.762C22.468 42.62 23.118 43.257 24.028 43.257C24.938 43.257 25.588 42.62 25.588 41.762C25.588 40.878 24.938 40.241 24.028 40.241C23.118 40.241 22.468 40.878 22.468 41.762ZM27.2796 41.762C27.2796 42.62 27.9296 43.257 28.8396 43.257C29.7496 43.257 30.3996 42.62 30.3996 41.762C30.3996 40.878 29.7496 40.241 28.8396 40.241C27.9296 40.241 27.2796 40.878 27.2796 41.762ZM32.0911 41.762C32.0911 42.62 32.7411 43.257 33.6511 43.257C34.5611 43.257 35.2111 42.62 35.2111 41.762C35.2111 40.878 34.5611 40.241 33.6511 40.241C32.7411 40.241 32.0911 40.878 32.0911 41.762ZM36.9026 41.762C36.9026 42.62 37.5526 43.257 38.4626 43.257C39.3726 43.257 40.0226 42.62 40.0226 41.762C40.0226 40.878 39.3726 40.241 38.4626 40.241C37.5526 40.241 36.9026 40.878 36.9026 41.762Z" fill="#FF0000"/>
<rect x="0.25" y="0.25" width="311.5" height="61.5" rx="11.75" stroke="#FF0000" stroke-width="0.5"/>
</svg>
