<svg width="200" height="200" viewBox="0 0 200 200" fill="none" xmlns="http://www.w3.org/2000/svg">
<rect x="0.25" y="0.25" width="199.5" height="199.5" rx="15.75" stroke="#D4D4D4" stroke-width="0.5"/>
<path fill-rule="evenodd" clip-rule="evenodd" d="M114.235 82.9299C114.047 82.9299 113.859 82.8831 113.695 82.7894C109.183 80.4699 105.283 79.4859 100.607 79.4859C95.9544 79.4859 91.537 80.5871 87.5191 82.7894C86.9551 83.0939 86.2502 82.8831 85.9213 82.3208C85.6158 81.7585 85.8273 81.0322 86.3912 80.7276C90.7616 78.3614 95.555 77.1431 100.607 77.1431C105.612 77.1431 109.982 78.2442 114.775 80.7042C115.363 81.0088 115.574 81.7116 115.269 82.2739C115.057 82.6956 114.658 82.9299 114.235 82.9299ZM80.611 95.2299C80.376 95.2299 80.141 95.1596 79.9296 95.0191C79.3891 94.6442 79.2717 93.9179 79.6476 93.3791C81.9738 90.0991 84.9344 87.5219 88.4589 85.7179C95.8369 81.9225 105.283 81.8991 112.684 85.6945C116.209 87.4985 119.169 90.0522 121.496 93.3088C121.871 93.8242 121.754 94.5739 121.214 94.9488C120.673 95.3236 119.945 95.2065 119.569 94.6676C117.454 91.7156 114.775 89.3962 111.603 87.7796C104.86 84.3356 96.2364 84.3356 89.5163 87.8031C86.3207 89.4431 83.6421 91.7859 81.5274 94.7379C81.3394 95.0659 80.9869 95.2299 80.611 95.2299ZM95.2965 123.508C94.9911 123.508 94.6856 123.391 94.4741 123.157C92.4299 121.118 91.3256 119.806 89.7513 116.972C88.13 114.09 87.2841 110.576 87.2841 106.804C87.2841 99.8454 93.2523 94.1756 100.583 94.1756C107.914 94.1756 113.883 99.8454 113.883 106.804C113.883 107.46 113.366 107.975 112.708 107.975C112.05 107.975 111.533 107.46 111.533 106.804C111.533 101.134 106.622 96.5185 100.583 96.5185C94.5446 96.5185 89.6338 101.134 89.6338 106.804C89.6338 110.177 90.3857 113.293 91.819 115.824C93.3228 118.518 94.3566 119.666 96.1659 121.493C96.6123 121.962 96.6123 122.688 96.1659 123.157C95.9074 123.391 95.602 123.508 95.2965 123.508ZM112.144 119.174C109.348 119.174 106.88 118.471 104.86 117.089C101.359 114.722 99.2675 110.88 99.2675 106.804C99.2675 106.148 99.7844 105.632 100.442 105.632C101.1 105.632 101.617 106.148 101.617 106.804C101.617 110.107 103.309 113.223 106.176 115.144C107.844 116.269 109.794 116.808 112.144 116.808C112.708 116.808 113.648 116.737 114.587 116.573C115.222 116.456 115.833 116.878 115.95 117.534C116.068 118.166 115.645 118.776 114.987 118.893C113.648 119.15 112.473 119.174 112.144 119.174ZM107.421 124C107.327 124 107.209 123.977 107.115 123.953C103.379 122.922 100.936 121.54 98.3746 119.033C95.085 115.777 93.2758 111.442 93.2758 106.804C93.2758 103.008 96.5184 99.9156 100.513 99.9156C104.507 99.9156 107.75 103.008 107.75 106.804C107.75 109.31 109.935 111.349 112.637 111.349C115.339 111.349 117.525 109.31 117.525 106.804C117.525 97.9711 109.888 90.8019 100.489 90.8019C93.8162 90.8019 87.707 94.5036 84.9579 100.244C84.0415 102.141 83.5716 104.367 83.5716 106.804C83.5716 108.631 83.7361 111.513 85.1459 115.261C85.3808 115.87 85.0754 116.55 84.4645 116.761C83.8535 116.995 83.1721 116.667 82.9607 116.081C81.8093 113.012 81.2454 109.966 81.2454 106.804C81.2454 103.992 81.7858 101.438 82.8432 99.2128C85.9683 92.6762 92.8998 88.4356 100.489 88.4356C111.18 88.4356 119.874 96.6591 119.874 106.78C119.874 110.576 116.632 113.668 112.637 113.668C108.643 113.668 105.4 110.576 105.4 106.78C105.4 104.273 103.215 102.235 100.513 102.235C97.8107 102.235 95.6255 104.273 95.6255 106.78C95.6255 110.786 97.1763 114.535 100.019 117.346C102.252 119.549 104.39 120.767 107.703 121.681C108.337 121.845 108.69 122.501 108.525 123.11C108.408 123.649 107.914 124 107.421 124Z" fill="#004FD4"/>
</svg>
