<svg width="205" height="11" viewBox="0 0 205 11" fill="none" xmlns="http://www.w3.org/2000/svg">
<path d="M6.09961 6.64746C6.05306 7.00911 5.95996 7.34212 5.82031 7.64648C5.68066 7.94727 5.49805 8.20687 5.27246 8.42529C5.05046 8.64014 4.78548 8.80843 4.47754 8.93018C4.17318 9.04834 3.83301 9.10742 3.45703 9.10742C3.13477 9.10742 2.84115 9.06266 2.57617 8.97314C2.31478 8.88005 2.08024 8.75293 1.87256 8.5918C1.66846 8.43066 1.49121 8.24089 1.34082 8.02246C1.19401 7.80404 1.07048 7.56592 0.970215 7.30811C0.873535 7.05029 0.80013 6.77995 0.75 6.49707C0.703451 6.21419 0.678385 5.92773 0.674805 5.6377V4.54736C0.678385 4.25732 0.703451 3.97087 0.75 3.68799C0.80013 3.40511 0.873535 3.13477 0.970215 2.87695C1.07048 2.61914 1.19401 2.38102 1.34082 2.1626C1.49121 1.94059 1.66846 1.74902 1.87256 1.58789C2.08024 1.42676 2.31478 1.30143 2.57617 1.21191C2.83757 1.11882 3.13118 1.07227 3.45703 1.07227C3.84733 1.07227 4.19645 1.13314 4.50439 1.25488C4.81234 1.37305 5.07731 1.54313 5.29932 1.76514C5.52132 1.98356 5.69857 2.24674 5.83105 2.55469C5.96712 2.86263 6.05664 3.2028 6.09961 3.5752H5.10596C5.07373 3.33887 5.01823 3.11865 4.93945 2.91455C4.86068 2.71045 4.75505 2.53141 4.62256 2.37744C4.49007 2.22347 4.32715 2.10352 4.13379 2.01758C3.94401 1.92806 3.71842 1.8833 3.45703 1.8833C3.2207 1.8833 3.01123 1.92269 2.82861 2.00146C2.64958 2.07666 2.49382 2.1805 2.36133 2.31299C2.23242 2.44548 2.12321 2.59945 2.03369 2.7749C1.94775 2.95036 1.87793 3.13656 1.82422 3.3335C1.77051 3.53044 1.73112 3.73275 1.70605 3.94043C1.68457 4.14453 1.67383 4.34326 1.67383 4.53662V5.6377C1.67383 5.83105 1.68457 6.03158 1.70605 6.23926C1.73112 6.44336 1.77051 6.64567 1.82422 6.84619C1.87793 7.04313 1.94775 7.22933 2.03369 7.40479C2.11963 7.58024 2.22884 7.736 2.36133 7.87207C2.49382 8.00456 2.64958 8.11019 2.82861 8.18896C3.00765 8.26416 3.21712 8.30176 3.45703 8.30176C3.71842 8.30176 3.94401 8.26058 4.13379 8.17822C4.32715 8.09587 4.49007 7.98128 4.62256 7.83447C4.75505 7.68408 4.86068 7.50863 4.93945 7.30811C5.01823 7.104 5.07373 6.88379 5.10596 6.64746H6.09961ZM12.5503 1.17969L12.561 6.47559C12.5539 6.84082 12.4876 7.18278 12.3623 7.50146C12.237 7.82015 12.0615 8.09945 11.8359 8.33936C11.6104 8.57568 11.3418 8.76367 11.0303 8.90332C10.7188 9.03939 10.3768 9.10742 10.0044 9.10742C9.62484 9.10742 9.2793 9.03939 8.96777 8.90332C8.65625 8.76725 8.38949 8.58105 8.16748 8.34473C7.94548 8.10482 7.77181 7.82552 7.64648 7.50684C7.52116 7.18457 7.45671 6.84082 7.45312 6.47559L7.46387 1.17969H8.40918L8.43066 6.47559C8.43424 6.70833 8.47005 6.93213 8.53809 7.14697C8.6097 7.36182 8.70996 7.5516 8.83887 7.71631C8.97135 7.88102 9.13428 8.01351 9.32764 8.11377C9.52458 8.21403 9.75016 8.26416 10.0044 8.26416C10.2586 8.26416 10.4824 8.21582 10.6758 8.11914C10.8691 8.01888 11.0303 7.88639 11.1592 7.72168C11.2917 7.55339 11.3919 7.36182 11.46 7.14697C11.528 6.93213 11.5656 6.70833 11.5728 6.47559L11.5889 1.17969H12.5503ZM18.3403 7.02344C18.3403 6.78353 18.2848 6.58122 18.1738 6.4165C18.0664 6.25179 17.9268 6.11393 17.7549 6.00293C17.583 5.88835 17.3932 5.79346 17.1855 5.71826C16.9814 5.64307 16.7845 5.57503 16.5947 5.51416C16.319 5.42464 16.0379 5.31722 15.7515 5.19189C15.4686 5.06657 15.209 4.9126 14.9727 4.72998C14.7399 4.54736 14.5483 4.33252 14.3979 4.08545C14.2511 3.8348 14.1777 3.54118 14.1777 3.20459C14.1777 2.868 14.2511 2.56722 14.3979 2.30225C14.5483 2.03727 14.7435 1.81348 14.9834 1.63086C15.2233 1.44824 15.4954 1.31038 15.7998 1.21729C16.1042 1.12061 16.4103 1.07227 16.7183 1.07227C17.0584 1.07227 17.3861 1.12956 17.7012 1.24414C18.0163 1.35514 18.2956 1.5127 18.5391 1.7168C18.7826 1.9209 18.9777 2.16797 19.1245 2.45801C19.2713 2.74805 19.3483 3.0721 19.3555 3.43018H18.335C18.3063 3.20459 18.2508 3.00049 18.1685 2.81787C18.0861 2.63167 17.9769 2.47233 17.8408 2.33984C17.7048 2.20736 17.5418 2.10531 17.3521 2.03369C17.1659 1.9585 16.9546 1.9209 16.7183 1.9209C16.5285 1.9209 16.3423 1.94775 16.1597 2.00146C15.9806 2.05518 15.8195 2.13574 15.6763 2.24316C15.5366 2.35059 15.4238 2.48307 15.3379 2.64062C15.2555 2.79818 15.2144 2.98079 15.2144 3.18848C15.2179 3.41406 15.2752 3.60563 15.3862 3.76318C15.4972 3.91715 15.6369 4.04785 15.8052 4.15527C15.9771 4.2627 16.1615 4.35221 16.3584 4.42383C16.5589 4.49544 16.7469 4.55811 16.9224 4.61182C17.1157 4.67269 17.3109 4.74251 17.5078 4.82129C17.7048 4.89648 17.8945 4.98421 18.0771 5.08447C18.2598 5.18473 18.4299 5.29753 18.5874 5.42285C18.745 5.54818 18.8828 5.69141 19.001 5.85254C19.1191 6.01009 19.2104 6.18555 19.2749 6.37891C19.3429 6.56868 19.377 6.77995 19.377 7.0127C19.377 7.36361 19.2982 7.66976 19.1406 7.93115C18.9867 8.19255 18.7861 8.41097 18.5391 8.58643C18.292 8.7583 18.0127 8.889 17.7012 8.97852C17.3896 9.06445 17.0781 9.10742 16.7666 9.10742C16.4193 9.10742 16.0791 9.05371 15.7461 8.94629C15.4131 8.83887 15.1141 8.6849 14.8491 8.48438C14.5877 8.28027 14.3747 8.0332 14.21 7.74316C14.0452 7.44954 13.9575 7.11654 13.9468 6.74414H14.9619C14.9941 6.98763 15.0604 7.20426 15.1606 7.39404C15.2609 7.58024 15.3898 7.73958 15.5474 7.87207C15.7049 8.00098 15.8857 8.09945 16.0898 8.16748C16.2975 8.23193 16.5231 8.26416 16.7666 8.26416C16.96 8.26416 17.1497 8.24089 17.3359 8.19434C17.5257 8.14421 17.694 8.06901 17.8408 7.96875C17.9876 7.86491 18.1076 7.736 18.2007 7.58203C18.2938 7.42448 18.3403 7.23828 18.3403 7.02344ZM26.1284 2.02832H23.7114V9H22.7446V2.02832H20.3276V1.17969H26.1284V2.02832ZM32.5469 5.54102C32.5433 5.82031 32.5182 6.10319 32.4717 6.38965C32.4287 6.67253 32.3607 6.94645 32.2676 7.21143C32.1745 7.4764 32.0545 7.72347 31.9077 7.95264C31.7645 8.1818 31.5926 8.38232 31.3921 8.5542C31.1916 8.72607 30.9606 8.86214 30.6992 8.9624C30.4414 9.05908 30.1514 9.10742 29.8291 9.10742C29.5068 9.10742 29.215 9.05908 28.9536 8.9624C28.6958 8.86214 28.4666 8.72607 28.2661 8.5542C28.0656 8.38232 27.8919 8.1818 27.7451 7.95264C27.5983 7.71989 27.4766 7.47103 27.3799 7.20605C27.2868 6.94108 27.217 6.66715 27.1704 6.38428C27.1239 6.1014 27.0988 5.82031 27.0952 5.54102V4.64941C27.0988 4.37012 27.1221 4.08903 27.165 3.80615C27.2116 3.51969 27.2814 3.24398 27.3745 2.979C27.4712 2.71403 27.5911 2.46696 27.7344 2.23779C27.8812 2.00505 28.0549 1.80273 28.2554 1.63086C28.4559 1.4554 28.6851 1.31934 28.9429 1.22266C29.2043 1.1224 29.4961 1.07227 29.8184 1.07227C30.1406 1.07227 30.4325 1.1224 30.6938 1.22266C30.9552 1.31934 31.1862 1.45361 31.3867 1.62549C31.5872 1.79736 31.7591 1.99967 31.9023 2.23242C32.0492 2.46159 32.1691 2.70866 32.2622 2.97363C32.3589 3.23861 32.4287 3.51432 32.4717 3.80078C32.5182 4.08724 32.5433 4.37012 32.5469 4.64941V5.54102ZM31.564 4.63867C31.5604 4.45247 31.5479 4.25911 31.5264 4.05859C31.5049 3.85449 31.4673 3.65397 31.4136 3.45703C31.3634 3.25651 31.2954 3.06673 31.2095 2.8877C31.1235 2.70508 31.0161 2.54574 30.8872 2.40967C30.7583 2.27002 30.6061 2.16081 30.4307 2.08203C30.2552 1.99967 30.0511 1.9585 29.8184 1.9585C29.5892 1.9585 29.3869 1.99967 29.2114 2.08203C29.036 2.16439 28.8838 2.27539 28.7549 2.41504C28.626 2.55111 28.5186 2.71045 28.4326 2.89307C28.3467 3.0721 28.2769 3.26188 28.2231 3.4624C28.173 3.65934 28.1354 3.85986 28.1104 4.06396C28.0889 4.26449 28.0763 4.45605 28.0728 4.63867V5.54102C28.0763 5.72363 28.0889 5.91699 28.1104 6.12109C28.1354 6.3252 28.1748 6.52751 28.2285 6.72803C28.2822 6.92497 28.3521 7.11475 28.438 7.29736C28.5239 7.47998 28.6313 7.64111 28.7603 7.78076C28.8892 7.91683 29.0413 8.02604 29.2168 8.1084C29.3923 8.19076 29.5964 8.23193 29.8291 8.23193C30.0618 8.23193 30.266 8.19076 30.4414 8.1084C30.6204 8.02604 30.7726 7.91683 30.8979 7.78076C31.0269 7.64111 31.1325 7.48177 31.2148 7.30273C31.3008 7.12012 31.3688 6.93034 31.4189 6.7334C31.4727 6.53288 31.5085 6.33057 31.5264 6.12646C31.5479 5.92236 31.5604 5.72721 31.564 5.54102V4.63867ZM35.1572 1.17969L36.4302 5.08984L37.8052 1.17969H39.0405V9H38.0737V5.87939L38.1543 2.61377L36.7095 6.82471H36.1401L34.8135 2.72656L34.894 5.87939V9H33.9272V1.17969H35.1572ZM44.9756 5.38525H41.71V8.15674H45.5181V9H40.7163V1.17969H45.4697V2.02832H41.71V4.54199H44.9756V5.38525ZM49.8687 5.80957H48.3057V9H47.3174V1.17969H49.6108C49.9761 1.18685 50.3198 1.23877 50.6421 1.33545C50.9644 1.43213 51.2454 1.57715 51.4854 1.77051C51.7288 1.96387 51.9186 2.20736 52.0547 2.50098C52.1943 2.79102 52.2642 3.13298 52.2642 3.52686C52.2642 3.78109 52.2266 4.01383 52.1514 4.2251C52.0798 4.43636 51.9795 4.62793 51.8506 4.7998C51.7217 4.97168 51.5677 5.12386 51.3887 5.25635C51.2096 5.38883 51.0127 5.50163 50.7979 5.59473L52.4575 8.93555L52.4521 9H51.4048L49.8687 5.80957ZM48.3057 4.99316H49.6377C49.8597 4.98958 50.0692 4.95557 50.2661 4.89111C50.4631 4.82308 50.6349 4.7264 50.7817 4.60107C50.9321 4.47575 51.0503 4.32357 51.1362 4.14453C51.2222 3.96191 51.2651 3.75244 51.2651 3.51611C51.2651 3.26546 51.224 3.04704 51.1416 2.86084C51.0592 2.67106 50.9447 2.51351 50.7979 2.38818C50.651 2.25928 50.4756 2.1626 50.2715 2.09814C50.071 2.03369 49.8507 1.99967 49.6108 1.99609H48.3057V4.99316ZM60.3906 9V1.17969H62.2007C62.745 1.18685 63.2301 1.27995 63.6562 1.45898C64.0859 1.63444 64.4476 1.88151 64.7412 2.2002C65.0384 2.5153 65.264 2.89486 65.418 3.33887C65.5755 3.7793 65.6561 4.26807 65.6597 4.80518V5.37988C65.6561 5.91699 65.5755 6.40755 65.418 6.85156C65.264 7.29199 65.0384 7.67155 64.7412 7.99023C64.4476 8.30534 64.0859 8.55241 63.6562 8.73145C63.2301 8.9069 62.745 8.99642 62.2007 9H60.3906ZM61.4004 1.99609V8.18896H62.2007C62.6232 8.18538 62.9884 8.11198 63.2964 7.96875C63.6043 7.82194 63.8586 7.62321 64.0591 7.37256C64.2632 7.12191 64.4136 6.8265 64.5103 6.48633C64.6105 6.14616 64.6624 5.77734 64.666 5.37988V4.79443C64.6624 4.39697 64.6105 4.02995 64.5103 3.69336C64.41 3.35319 64.2596 3.05957 64.0591 2.8125C63.8586 2.56185 63.6043 2.36491 63.2964 2.22168C62.9884 2.07845 62.6232 2.00326 62.2007 1.99609H61.4004ZM72.1855 5.54102C72.182 5.82031 72.1569 6.10319 72.1104 6.38965C72.0674 6.67253 71.9993 6.94645 71.9062 7.21143C71.8132 7.4764 71.6932 7.72347 71.5464 7.95264C71.4032 8.1818 71.2313 8.38232 71.0308 8.5542C70.8302 8.72607 70.5993 8.86214 70.3379 8.9624C70.0801 9.05908 69.79 9.10742 69.4678 9.10742C69.1455 9.10742 68.8537 9.05908 68.5923 8.9624C68.3345 8.86214 68.1053 8.72607 67.9048 8.5542C67.7043 8.38232 67.5306 8.1818 67.3838 7.95264C67.237 7.71989 67.1152 7.47103 67.0186 7.20605C66.9255 6.94108 66.8556 6.66715 66.8091 6.38428C66.7625 6.1014 66.7375 5.82031 66.7339 5.54102V4.64941C66.7375 4.37012 66.7607 4.08903 66.8037 3.80615C66.8503 3.51969 66.9201 3.24398 67.0132 2.979C67.1099 2.71403 67.2298 2.46696 67.373 2.23779C67.5199 2.00505 67.6935 1.80273 67.894 1.63086C68.0946 1.4554 68.3237 1.31934 68.5815 1.22266C68.8429 1.1224 69.1348 1.07227 69.457 1.07227C69.7793 1.07227 70.0711 1.1224 70.3325 1.22266C70.5939 1.31934 70.8249 1.45361 71.0254 1.62549C71.2259 1.79736 71.3978 1.99967 71.541 2.23242C71.6878 2.46159 71.8078 2.70866 71.9009 2.97363C71.9976 3.23861 72.0674 3.51432 72.1104 3.80078C72.1569 4.08724 72.182 4.37012 72.1855 4.64941V5.54102ZM71.2026 4.63867C71.1991 4.45247 71.1865 4.25911 71.165 4.05859C71.1436 3.85449 71.106 3.65397 71.0522 3.45703C71.0021 3.25651 70.9341 3.06673 70.8481 2.8877C70.7622 2.70508 70.6548 2.54574 70.5259 2.40967C70.397 2.27002 70.2448 2.16081 70.0693 2.08203C69.8939 1.99967 69.6898 1.9585 69.457 1.9585C69.2279 1.9585 69.0256 1.99967 68.8501 2.08203C68.6746 2.16439 68.5225 2.27539 68.3936 2.41504C68.2646 2.55111 68.1572 2.71045 68.0713 2.89307C67.9854 3.0721 67.9155 3.26188 67.8618 3.4624C67.8117 3.65934 67.7741 3.85986 67.749 4.06396C67.7275 4.26449 67.715 4.45605 67.7114 4.63867V5.54102C67.715 5.72363 67.7275 5.91699 67.749 6.12109C67.7741 6.3252 67.8135 6.52751 67.8672 6.72803C67.9209 6.92497 67.9907 7.11475 68.0767 7.29736C68.1626 7.47998 68.27 7.64111 68.3989 7.78076C68.5278 7.91683 68.68 8.02604 68.8555 8.1084C69.0309 8.19076 69.235 8.23193 69.4678 8.23193C69.7005 8.23193 69.9046 8.19076 70.0801 8.1084C70.2591 8.02604 70.4113 7.91683 70.5366 7.78076C70.6655 7.64111 70.7712 7.48177 70.8535 7.30273C70.9395 7.12012 71.0075 6.93034 71.0576 6.7334C71.1113 6.53288 71.1471 6.33057 71.165 6.12646C71.1865 5.92236 71.1991 5.72721 71.2026 5.54102V4.63867ZM78.0078 5.38525H74.7422V8.15674H78.5503V9H73.7485V1.17969H78.502V2.02832H74.7422V4.54199H78.0078V5.38525ZM84.4048 7.02344C84.4048 6.78353 84.3493 6.58122 84.2383 6.4165C84.1309 6.25179 83.9912 6.11393 83.8193 6.00293C83.6475 5.88835 83.4577 5.79346 83.25 5.71826C83.0459 5.64307 82.849 5.57503 82.6592 5.51416C82.3835 5.42464 82.1024 5.31722 81.8159 5.19189C81.533 5.06657 81.2734 4.9126 81.0371 4.72998C80.8044 4.54736 80.6128 4.33252 80.4624 4.08545C80.3156 3.8348 80.2422 3.54118 80.2422 3.20459C80.2422 2.868 80.3156 2.56722 80.4624 2.30225C80.6128 2.03727 80.8079 1.81348 81.0479 1.63086C81.2878 1.44824 81.5599 1.31038 81.8643 1.21729C82.1686 1.12061 82.4748 1.07227 82.7827 1.07227C83.1229 1.07227 83.4505 1.12956 83.7656 1.24414C84.0807 1.35514 84.36 1.5127 84.6035 1.7168C84.847 1.9209 85.0422 2.16797 85.189 2.45801C85.3358 2.74805 85.4128 3.0721 85.4199 3.43018H84.3994C84.3708 3.20459 84.3153 3.00049 84.2329 2.81787C84.1506 2.63167 84.0413 2.47233 83.9053 2.33984C83.7692 2.20736 83.6063 2.10531 83.4165 2.03369C83.2303 1.9585 83.019 1.9209 82.7827 1.9209C82.5929 1.9209 82.4067 1.94775 82.2241 2.00146C82.0451 2.05518 81.884 2.13574 81.7407 2.24316C81.6011 2.35059 81.4883 2.48307 81.4023 2.64062C81.32 2.79818 81.2788 2.98079 81.2788 3.18848C81.2824 3.41406 81.3397 3.60563 81.4507 3.76318C81.5617 3.91715 81.7013 4.04785 81.8696 4.15527C82.0415 4.2627 82.2259 4.35221 82.4229 4.42383C82.6234 4.49544 82.8114 4.55811 82.9868 4.61182C83.1802 4.67269 83.3753 4.74251 83.5723 4.82129C83.7692 4.89648 83.959 4.98421 84.1416 5.08447C84.3242 5.18473 84.4943 5.29753 84.6519 5.42285C84.8094 5.54818 84.9473 5.69141 85.0654 5.85254C85.1836 6.01009 85.2749 6.18555 85.3394 6.37891C85.4074 6.56868 85.4414 6.77995 85.4414 7.0127C85.4414 7.36361 85.3626 7.66976 85.2051 7.93115C85.0511 8.19255 84.8506 8.41097 84.6035 8.58643C84.3564 8.7583 84.0771 8.889 83.7656 8.97852C83.4541 9.06445 83.1426 9.10742 82.8311 9.10742C82.4837 9.10742 82.1436 9.05371 81.8105 8.94629C81.4775 8.83887 81.1785 8.6849 80.9136 8.48438C80.6522 8.28027 80.4391 8.0332 80.2744 7.74316C80.1097 7.44954 80.022 7.11654 80.0112 6.74414H81.0264C81.0586 6.98763 81.1248 7.20426 81.2251 7.39404C81.3254 7.58024 81.4543 7.73958 81.6118 7.87207C81.7694 8.00098 81.9502 8.09945 82.1543 8.16748C82.362 8.23193 82.5876 8.26416 82.8311 8.26416C83.0244 8.26416 83.2142 8.24089 83.4004 8.19434C83.5902 8.14421 83.7585 8.06901 83.9053 7.96875C84.0521 7.86491 84.172 7.736 84.2651 7.58203C84.3582 7.42448 84.4048 7.23828 84.4048 7.02344ZM91.8169 9H90.8071L87.7725 3.15625L87.7563 9H86.752V1.17969H87.7617L90.7964 7.0127L90.8125 1.17969H91.8169V9ZM96.5435 1.42139C96.5435 1.58968 96.522 1.76693 96.479 1.95312C96.4396 2.13932 96.3787 2.32373 96.2964 2.50635C96.2176 2.68538 96.1209 2.85726 96.0063 3.02197C95.8918 3.18669 95.7593 3.3335 95.6089 3.4624L95.0664 3.07568C95.2347 2.82145 95.36 2.56185 95.4424 2.29688C95.5283 2.0319 95.5713 1.74544 95.5713 1.4375V0.631836H96.5435V1.42139ZM105.406 2.02832H102.989V9H102.022V2.02832H99.605V1.17969H105.406V2.02832ZM115.219 5.36914L114.349 6.35742V9H113.333V1.17969H114.349V4.99854L115.106 4.05322L117.399 1.17969H118.608L115.874 4.60107L118.791 9H117.582L115.219 5.36914ZM124.849 9H123.839L120.805 3.15625L120.789 9H119.784V1.17969H120.794L123.829 7.0127L123.845 1.17969H124.849V9ZM131.644 5.54102C131.64 5.82031 131.615 6.10319 131.568 6.38965C131.525 6.67253 131.457 6.94645 131.364 7.21143C131.271 7.4764 131.151 7.72347 131.004 7.95264C130.861 8.1818 130.689 8.38232 130.489 8.5542C130.288 8.72607 130.057 8.86214 129.796 8.9624C129.538 9.05908 129.248 9.10742 128.926 9.10742C128.604 9.10742 128.312 9.05908 128.05 8.9624C127.792 8.86214 127.563 8.72607 127.363 8.5542C127.162 8.38232 126.989 8.1818 126.842 7.95264C126.695 7.71989 126.573 7.47103 126.477 7.20605C126.383 6.94108 126.314 6.66715 126.267 6.38428C126.221 6.1014 126.195 5.82031 126.192 5.54102V4.64941C126.195 4.37012 126.219 4.08903 126.262 3.80615C126.308 3.51969 126.378 3.24398 126.471 2.979C126.568 2.71403 126.688 2.46696 126.831 2.23779C126.978 2.00505 127.152 1.80273 127.352 1.63086C127.553 1.4554 127.782 1.31934 128.04 1.22266C128.301 1.1224 128.593 1.07227 128.915 1.07227C129.237 1.07227 129.529 1.1224 129.791 1.22266C130.052 1.31934 130.283 1.45361 130.483 1.62549C130.684 1.79736 130.856 1.99967 130.999 2.23242C131.146 2.46159 131.266 2.70866 131.359 2.97363C131.456 3.23861 131.525 3.51432 131.568 3.80078C131.615 4.08724 131.64 4.37012 131.644 4.64941V5.54102ZM130.661 4.63867C130.657 4.45247 130.645 4.25911 130.623 4.05859C130.602 3.85449 130.564 3.65397 130.51 3.45703C130.46 3.25651 130.392 3.06673 130.306 2.8877C130.22 2.70508 130.113 2.54574 129.984 2.40967C129.855 2.27002 129.703 2.16081 129.527 2.08203C129.352 1.99967 129.148 1.9585 128.915 1.9585C128.686 1.9585 128.484 1.99967 128.308 2.08203C128.133 2.16439 127.98 2.27539 127.852 2.41504C127.723 2.55111 127.615 2.71045 127.529 2.89307C127.443 3.0721 127.374 3.26188 127.32 3.4624C127.27 3.65934 127.232 3.85986 127.207 4.06396C127.186 4.26449 127.173 4.45605 127.169 4.63867V5.54102C127.173 5.72363 127.186 5.91699 127.207 6.12109C127.232 6.3252 127.271 6.52751 127.325 6.72803C127.379 6.92497 127.449 7.11475 127.535 7.29736C127.621 7.47998 127.728 7.64111 127.857 7.78076C127.986 7.91683 128.138 8.02604 128.313 8.1084C128.489 8.19076 128.693 8.23193 128.926 8.23193C129.159 8.23193 129.363 8.19076 129.538 8.1084C129.717 8.02604 129.869 7.91683 129.995 7.78076C130.124 7.64111 130.229 7.48177 130.312 7.30273C130.397 7.12012 130.465 6.93034 130.516 6.7334C130.569 6.53288 130.605 6.33057 130.623 6.12646C130.645 5.92236 130.657 5.72721 130.661 5.54102V4.63867ZM137.042 6.88379L137.638 1.17969H138.578L137.627 9H136.612L135.607 3.10791L134.592 9H133.572L132.621 1.17969H133.566L134.163 6.88379L135.167 1.17969H136.032L137.042 6.88379ZM146.376 1.17969H151.103V2.04443H149.229V8.14062H151.103V9H146.376V8.14062H148.208V2.04443H146.376V1.17969ZM152.881 9V1.17969H154.691C155.235 1.18685 155.72 1.27995 156.146 1.45898C156.576 1.63444 156.938 1.88151 157.231 2.2002C157.529 2.5153 157.754 2.89486 157.908 3.33887C158.066 3.7793 158.146 4.26807 158.15 4.80518V5.37988C158.146 5.91699 158.066 6.40755 157.908 6.85156C157.754 7.29199 157.529 7.67155 157.231 7.99023C156.938 8.30534 156.576 8.55241 156.146 8.73145C155.72 8.9069 155.235 8.99642 154.691 9H152.881ZM153.891 1.99609V8.18896H154.691C155.113 8.18538 155.479 8.11198 155.787 7.96875C156.095 7.82194 156.349 7.62321 156.549 7.37256C156.753 7.12191 156.904 6.8265 157 6.48633C157.101 6.14616 157.153 5.77734 157.156 5.37988V4.79443C157.153 4.39697 157.101 4.02995 157 3.69336C156.9 3.35319 156.75 3.05957 156.549 2.8125C156.349 2.56185 156.095 2.36491 155.787 2.22168C155.479 2.07845 155.113 2.00326 154.691 1.99609H153.891ZM171.094 9H170.084L167.05 3.15625L167.034 9H166.029V1.17969H167.039L170.074 7.0127L170.09 1.17969H171.094V9ZM177.711 1.17969L177.722 6.47559C177.715 6.84082 177.649 7.18278 177.523 7.50146C177.398 7.82015 177.223 8.09945 176.997 8.33936C176.771 8.57568 176.503 8.76367 176.191 8.90332C175.88 9.03939 175.538 9.10742 175.166 9.10742C174.786 9.10742 174.44 9.03939 174.129 8.90332C173.817 8.76725 173.551 8.58105 173.329 8.34473C173.107 8.10482 172.933 7.82552 172.808 7.50684C172.682 7.18457 172.618 6.84082 172.614 6.47559L172.625 1.17969H173.57L173.592 6.47559C173.595 6.70833 173.631 6.93213 173.699 7.14697C173.771 7.36182 173.871 7.5516 174 7.71631C174.132 7.88102 174.295 8.01351 174.489 8.11377C174.686 8.21403 174.911 8.26416 175.166 8.26416C175.42 8.26416 175.644 8.21582 175.837 8.11914C176.03 8.01888 176.191 7.88639 176.32 7.72168C176.453 7.55339 176.553 7.36182 176.621 7.14697C176.689 6.93213 176.727 6.70833 176.734 6.47559L176.75 1.17969H177.711ZM180.499 1.17969L181.772 5.08984L183.147 1.17969H184.382V9H183.416V5.87939L183.496 2.61377L182.051 6.82471H181.482L180.155 2.72656L180.236 5.87939V9H179.269V1.17969H180.499ZM186.004 9V1.17969H188.33C188.652 1.18327 188.967 1.22624 189.275 1.30859C189.583 1.38737 189.857 1.5109 190.097 1.6792C190.337 1.84749 190.529 2.06234 190.672 2.32373C190.815 2.58512 190.885 2.89844 190.881 3.26367C190.878 3.46777 190.844 3.65397 190.779 3.82227C190.718 3.99056 190.632 4.14274 190.521 4.27881C190.414 4.4113 190.287 4.52767 190.14 4.62793C189.993 4.72819 189.838 4.81413 189.673 4.88574C189.881 4.94661 190.07 5.03434 190.242 5.14893C190.418 5.25993 190.568 5.396 190.693 5.55713C190.819 5.71468 190.915 5.89372 190.983 6.09424C191.055 6.29476 191.091 6.51139 191.091 6.74414C191.094 7.10938 191.025 7.43164 190.881 7.71094C190.738 7.99023 190.547 8.22477 190.307 8.41455C190.067 8.60075 189.789 8.74398 189.474 8.84424C189.163 8.9445 188.84 8.99642 188.507 9H186.004ZM187.003 5.34229V8.15674H188.534C188.742 8.15316 188.939 8.11914 189.125 8.05469C189.311 7.98665 189.476 7.89355 189.619 7.77539C189.762 7.65723 189.875 7.51221 189.958 7.34033C190.043 7.16846 190.086 6.97331 190.086 6.75488C190.09 6.53288 190.052 6.33594 189.974 6.16406C189.898 5.99219 189.793 5.84717 189.657 5.729C189.521 5.60726 189.361 5.51416 189.179 5.44971C188.996 5.38525 188.799 5.34945 188.588 5.34229H187.003ZM187.003 4.51514H188.389C188.575 4.51156 188.758 4.48291 188.937 4.4292C189.116 4.37191 189.275 4.29134 189.415 4.1875C189.555 4.08008 189.667 3.94938 189.753 3.79541C189.839 3.64144 189.882 3.4624 189.882 3.2583C189.882 3.03988 189.839 2.85368 189.753 2.69971C189.671 2.54574 189.558 2.42041 189.415 2.32373C189.275 2.22347 189.112 2.15007 188.926 2.10352C188.744 2.05697 188.556 2.0319 188.362 2.02832H187.003V4.51514ZM196.924 5.38525H193.658V8.15674H197.466V9H192.665V1.17969H197.418V2.02832H193.658V4.54199H196.924V5.38525ZM201.817 5.80957H200.254V9H199.266V1.17969H201.559C201.924 1.18685 202.268 1.23877 202.59 1.33545C202.913 1.43213 203.194 1.57715 203.434 1.77051C203.677 1.96387 203.867 2.20736 204.003 2.50098C204.143 2.79102 204.212 3.13298 204.212 3.52686C204.212 3.78109 204.175 4.01383 204.1 4.2251C204.028 4.43636 203.928 4.62793 203.799 4.7998C203.67 4.97168 203.516 5.12386 203.337 5.25635C203.158 5.38883 202.961 5.50163 202.746 5.59473L204.406 8.93555L204.4 9H203.353L201.817 5.80957ZM200.254 4.99316H201.586C201.808 4.98958 202.017 4.95557 202.214 4.89111C202.411 4.82308 202.583 4.7264 202.73 4.60107C202.88 4.47575 202.999 4.32357 203.084 4.14453C203.17 3.96191 203.213 3.75244 203.213 3.51611C203.213 3.26546 203.172 3.04704 203.09 2.86084C203.007 2.67106 202.893 2.51351 202.746 2.38818C202.599 2.25928 202.424 2.1626 202.22 2.09814C202.019 2.03369 201.799 1.99967 201.559 1.99609H200.254V4.99316Z" fill="#004FD4"/>
<path d="M0.100098 10.0742H204.895V10.6113H0.100098V10.0742Z" fill="#004FD4"/>
</svg>
