<svg width="400" height="74" viewBox="0 0 400 74" fill="none" xmlns="http://www.w3.org/2000/svg">
<rect width="400" height="74" rx="20" fill="white"/>
<path opacity="0.3" fill-rule="evenodd" clip-rule="evenodd" d="M32 47C37.5228 47 42 42.5228 42 37C42 31.4772 37.5228 27 32 27C26.4772 27 22 31.4772 22 37C22 42.5228 26.4772 47 32 47Z" fill="#0081F9"/>
<rect x="31" y="35" width="2" height="7" rx="1" fill="#0081F9"/>
<rect x="31" y="32" width="2" height="2" rx="1" fill="#0081F9"/>
<path d="M60.648 28.01C62.608 28.01 63.98 27.072 63.98 25.084C63.98 23.04 62.678 22.2 60.648 22.2H57.26V32H58.478V28.01H60.648ZM62.748 25.084C62.748 26.414 61.95 27.03 60.354 27.03H58.478V23.18H60.354C61.978 23.18 62.748 23.698 62.748 25.084ZM65.3282 32H66.5042V22.2H65.3282V32ZM72.8722 30.068C72.5362 30.824 72.1162 31.258 71.2062 31.258C69.8622 31.258 69.3022 30.152 69.2462 28.906H74.1322V28.514C74.1322 26.806 73.1662 25.224 71.1502 25.224C69.2322 25.224 68.0422 26.694 68.0422 28.682C68.0422 30.698 69.2042 32.168 71.1922 32.168C72.5642 32.168 73.4042 31.496 73.9082 30.488L72.8722 30.068ZM71.1222 26.134C72.1442 26.134 72.8722 26.862 72.9282 28.024H69.2882C69.4002 26.946 70.0722 26.134 71.1222 26.134ZM75.0472 28.696C75.0472 30.838 76.3072 32.168 78.0152 32.168C79.1212 32.168 79.7512 31.608 80.1152 31.006V32H81.2212V25.392H80.1152V26.386C79.7793 25.784 79.1212 25.224 78.0152 25.224C76.3072 25.224 75.0472 26.554 75.0472 28.696ZM78.1412 26.19C78.8832 26.19 80.0452 26.68 80.0452 28.262V29.13C80.0452 30.712 78.8972 31.202 78.1412 31.202C76.9792 31.202 76.2652 30.124 76.2652 28.696C76.2652 27.268 76.9792 26.19 78.1412 26.19ZM84.0093 27.114C84.0093 26.442 84.5693 26.12 85.3113 26.12C86.2213 26.12 86.6973 26.568 86.7953 27.324L87.9573 27.086C87.8033 25.938 86.7813 25.224 85.3533 25.224C84.0093 25.224 82.8333 25.896 82.8333 27.17C82.8333 28.234 83.5053 28.836 85.1853 29.102C86.4593 29.298 86.8933 29.564 86.8933 30.18C86.8933 30.866 86.3333 31.258 85.3953 31.258C84.3873 31.258 83.8973 30.838 83.8133 29.942L82.6513 30.096C82.7913 31.44 83.7713 32.168 85.3813 32.168C87.0473 32.168 88.0693 31.37 88.0693 30.11C88.0693 28.78 86.9353 28.346 85.5493 28.136C84.5133 27.982 84.0093 27.744 84.0093 27.114ZM93.8737 30.068C93.5377 30.824 93.1177 31.258 92.2077 31.258C90.8637 31.258 90.3037 30.152 90.2477 28.906H95.1337V28.514C95.1337 26.806 94.1677 25.224 92.1517 25.224C90.2337 25.224 89.0437 26.694 89.0437 28.682C89.0437 30.698 90.2057 32.168 92.1937 32.168C93.5657 32.168 94.4057 31.496 94.9097 30.488L93.8737 30.068ZM92.1237 26.134C93.1457 26.134 93.8737 26.862 93.9297 28.024H90.2897C90.4017 26.946 91.0737 26.134 92.1237 26.134ZM99.6477 32H100.824V28.402C100.824 27.016 101.678 26.19 102.602 26.19C103.288 26.19 104.016 26.596 104.016 27.604V32H105.192V27.422C105.192 25.952 104.114 25.224 102.84 25.224C101.846 25.224 101.23 25.672 100.824 26.302V22.2H99.6477V32ZM106.655 28.696C106.655 30.838 107.915 32.168 109.623 32.168C110.729 32.168 111.359 31.608 111.723 31.006V32H112.829V25.392H111.723V26.386C111.387 25.784 110.729 25.224 109.623 25.224C107.915 25.224 106.655 26.554 106.655 28.696ZM109.749 26.19C110.491 26.19 111.653 26.68 111.653 28.262V29.13C111.653 30.712 110.505 31.202 109.749 31.202C108.587 31.202 107.873 30.124 107.873 28.696C107.873 27.268 108.587 26.19 109.749 26.19ZM116.513 32H117.703L120.237 25.392H119.075C119.075 25.392 117.451 29.886 117.157 30.88H117.129C116.835 29.886 115.225 25.392 115.225 25.392H113.979L116.513 32ZM125.7 30.068C125.364 30.824 124.944 31.258 124.034 31.258C122.69 31.258 122.13 30.152 122.074 28.906H126.96V28.514C126.96 26.806 125.994 25.224 123.978 25.224C122.06 25.224 120.87 26.694 120.87 28.682C120.87 30.698 122.032 32.168 124.02 32.168C125.392 32.168 126.232 31.496 126.736 30.488L125.7 30.068ZM123.95 26.134C124.972 26.134 125.7 26.862 125.756 28.024H122.116C122.228 26.946 122.9 26.134 123.95 26.134ZM134.274 30.978C134.092 31.104 133.854 31.188 133.616 31.188C133.196 31.188 132.93 30.908 132.93 30.432V26.288H134.47V25.392H132.93V22.97L131.754 23.502V25.392H130.634V26.288H131.754V30.544C131.754 31.412 132.3 32.168 133.462 32.168C133.938 32.168 134.386 32.056 134.652 31.902L134.274 30.978ZM135.922 32H137.098V28.402C137.098 27.016 137.952 26.19 138.876 26.19C139.562 26.19 140.29 26.596 140.29 27.604V32H141.466V27.422C141.466 25.952 140.388 25.224 139.114 25.224C138.12 25.224 137.504 25.672 137.098 26.302V22.2H135.922V32ZM147.759 30.068C147.423 30.824 147.003 31.258 146.093 31.258C144.749 31.258 144.189 30.152 144.133 28.906H149.019V28.514C149.019 26.806 148.053 25.224 146.037 25.224C144.119 25.224 142.929 26.694 142.929 28.682C142.929 30.698 144.091 32.168 146.079 32.168C147.451 32.168 148.291 31.496 148.795 30.488L147.759 30.068ZM146.009 26.134C147.031 26.134 147.759 26.862 147.815 28.024H144.175C144.287 26.946 144.959 26.134 146.009 26.134ZM153.029 28.696C153.029 30.698 154.177 32.168 156.151 32.168C157.537 32.168 158.307 31.426 158.811 30.446L157.719 30.026C157.453 30.656 157.075 31.202 156.137 31.202C154.877 31.202 154.247 30.068 154.247 28.682C154.247 27.31 154.877 26.176 156.123 26.176C156.991 26.176 157.495 26.652 157.705 27.394L158.797 26.974C158.377 25.98 157.593 25.224 156.165 25.224C154.163 25.224 153.029 26.694 153.029 28.696ZM165.628 25.392H164.452V28.99C164.452 30.376 163.612 31.202 162.702 31.202C162.03 31.202 161.316 30.796 161.316 29.788V25.392H160.14V29.97C160.14 31.44 161.204 32.168 162.464 32.168C163.444 32.168 164.06 31.72 164.522 31.006V32H165.628V25.392ZM168.408 27.114C168.408 26.442 168.968 26.12 169.71 26.12C170.62 26.12 171.096 26.568 171.194 27.324L172.356 27.086C172.202 25.938 171.18 25.224 169.752 25.224C168.408 25.224 167.232 25.896 167.232 27.17C167.232 28.234 167.904 28.836 169.584 29.102C170.858 29.298 171.292 29.564 171.292 30.18C171.292 30.866 170.732 31.258 169.794 31.258C168.786 31.258 168.296 30.838 168.212 29.942L167.05 30.096C167.19 31.44 168.17 32.168 169.78 32.168C171.446 32.168 172.468 31.37 172.468 30.11C172.468 28.78 171.334 28.346 169.948 28.136C168.912 27.982 168.408 27.744 168.408 27.114ZM176.747 30.978C176.565 31.104 176.327 31.188 176.089 31.188C175.669 31.188 175.403 30.908 175.403 30.432V26.288H176.943V25.392H175.403V22.97L174.227 23.502V25.392H173.107V26.288H174.227V30.544C174.227 31.412 174.773 32.168 175.935 32.168C176.411 32.168 176.859 32.056 177.125 31.902L176.747 30.978ZM180.933 25.224C178.917 25.224 177.755 26.694 177.755 28.696C177.755 30.698 178.917 32.168 180.933 32.168C182.949 32.168 184.111 30.698 184.111 28.696C184.111 26.694 182.949 25.224 180.933 25.224ZM180.933 31.23C179.617 31.23 178.973 30.082 178.973 28.696C178.973 27.31 179.617 26.162 180.933 26.162C182.249 26.162 182.893 27.31 182.893 28.696C182.893 30.082 182.249 31.23 180.933 31.23ZM185.647 32H186.823V28.402C186.823 27.016 187.621 26.19 188.475 26.19C189.105 26.19 189.763 26.596 189.763 27.604V32H190.939V28.402C190.939 27.016 191.737 26.19 192.605 26.19C193.235 26.19 193.879 26.596 193.879 27.604V32H195.055V27.422C195.055 25.952 194.061 25.224 192.871 25.224C191.891 25.224 191.093 25.826 190.729 26.428C190.407 25.658 189.665 25.224 188.741 25.224C187.803 25.224 187.187 25.672 186.753 26.386V25.392H185.647V32ZM201.353 30.068C201.017 30.824 200.597 31.258 199.687 31.258C198.343 31.258 197.783 30.152 197.727 28.906H202.613V28.514C202.613 26.806 201.647 25.224 199.631 25.224C197.713 25.224 196.523 26.694 196.523 28.682C196.523 30.698 197.685 32.168 199.673 32.168C201.045 32.168 201.885 31.496 202.389 30.488L201.353 30.068ZM199.603 26.134C200.625 26.134 201.353 26.862 201.409 28.024H197.769C197.881 26.946 198.553 26.134 199.603 26.134ZM207.882 25.378C207.644 25.266 207.336 25.224 207.07 25.224C206.23 25.224 205.474 25.63 205.138 26.428V25.392H204.032V32H205.208V28.43C205.208 27.086 205.964 26.19 206.86 26.19C207.182 26.19 207.434 26.302 207.616 26.47L207.882 25.378ZM215.822 25.378C215.584 25.266 215.276 25.224 215.01 25.224C214.17 25.224 213.414 25.63 213.078 26.428V25.392H211.972V32H213.148V28.43C213.148 27.086 213.904 26.19 214.8 26.19C215.122 26.19 215.374 26.302 215.556 26.47L215.822 25.378ZM221.006 30.068C220.67 30.824 220.25 31.258 219.34 31.258C217.996 31.258 217.436 30.152 217.38 28.906H222.266V28.514C222.266 26.806 221.3 25.224 219.284 25.224C217.366 25.224 216.176 26.694 216.176 28.682C216.176 30.698 217.338 32.168 219.326 32.168C220.698 32.168 221.538 31.496 222.042 30.488L221.006 30.068ZM219.256 26.134C220.278 26.134 221.006 26.862 221.062 28.024H217.422C217.534 26.946 218.206 26.134 219.256 26.134ZM225.323 32H226.513L229.047 25.392H227.885C227.885 25.392 226.261 29.886 225.967 30.88H225.939C225.645 29.886 224.035 25.392 224.035 25.392H222.789L225.323 32ZM230.002 22.816C230.002 23.222 230.324 23.572 230.772 23.572C231.22 23.572 231.542 23.222 231.542 22.816C231.542 22.354 231.22 22.046 230.772 22.046C230.324 22.046 230.002 22.354 230.002 22.816ZM230.184 32H231.36V25.392H230.184V32ZM237.728 30.068C237.392 30.824 236.972 31.258 236.062 31.258C234.718 31.258 234.158 30.152 234.102 28.906H238.988V28.514C238.988 26.806 238.022 25.224 236.006 25.224C234.088 25.224 232.898 26.694 232.898 28.682C232.898 30.698 234.06 32.168 236.048 32.168C237.42 32.168 238.26 31.496 238.764 30.488L237.728 30.068ZM235.978 26.134C237 26.134 237.728 26.862 237.784 28.024H234.144C234.256 26.946 234.928 26.134 235.978 26.134ZM243.893 25.392C243.879 25.392 242.521 29.788 242.255 30.754H242.227C242.031 29.76 240.673 25.392 240.673 25.392H239.511L241.625 32H242.773C242.787 32 244.145 27.59 244.355 26.792C244.551 27.59 245.937 32 245.937 32H247.085L249.199 25.392H248.107C248.107 25.392 246.791 29.662 246.553 30.754H246.525C246.329 29.886 244.887 25.392 244.887 25.392H243.893ZM256.233 30.978C256.051 31.104 255.813 31.188 255.575 31.188C255.155 31.188 254.889 30.908 254.889 30.432V26.288H256.429V25.392H254.889V22.97L253.713 23.502V25.392H252.593V26.288H253.713V30.544C253.713 31.412 254.259 32.168 255.421 32.168C255.897 32.168 256.345 32.056 256.611 31.902L256.233 30.978ZM257.881 32H259.057V28.402C259.057 27.016 259.911 26.19 260.835 26.19C261.521 26.19 262.249 26.596 262.249 27.604V32H263.425V27.422C263.425 25.952 262.347 25.224 261.073 25.224C260.079 25.224 259.463 25.672 259.057 26.302V22.2H257.881V32ZM269.718 30.068C269.382 30.824 268.962 31.258 268.052 31.258C266.708 31.258 266.148 30.152 266.092 28.906H270.978V28.514C270.978 26.806 270.012 25.224 267.996 25.224C266.078 25.224 264.888 26.694 264.888 28.682C264.888 30.698 266.05 32.168 268.038 32.168C269.41 32.168 270.25 31.496 270.754 30.488L269.718 30.068ZM267.968 26.134C268.99 26.134 269.718 26.862 269.774 28.024H266.134C266.246 26.946 266.918 26.134 267.968 26.134ZM274.652 26.288H275.772V32H276.948V26.288H278.488V25.392H276.948V24.216C276.948 23.488 277.312 23.054 277.998 23.054C278.418 23.054 278.768 23.222 278.978 23.39L279.496 22.438C279.174 22.214 278.53 22.032 277.914 22.032C276.864 22.032 275.772 22.578 275.772 24.146V25.392H274.652V26.288ZM282.246 25.224C280.23 25.224 279.068 26.694 279.068 28.696C279.068 30.698 280.23 32.168 282.246 32.168C284.262 32.168 285.424 30.698 285.424 28.696C285.424 26.694 284.262 25.224 282.246 25.224ZM282.246 31.23C280.93 31.23 280.286 30.082 280.286 28.696C280.286 27.31 280.93 26.162 282.246 26.162C283.562 26.162 284.206 27.31 284.206 28.696C284.206 30.082 283.562 31.23 282.246 31.23ZM286.959 32H288.135V22.2H286.959V32ZM290.177 32H291.353V22.2H290.177V32ZM296.069 25.224C294.053 25.224 292.891 26.694 292.891 28.696C292.891 30.698 294.053 32.168 296.069 32.168C298.085 32.168 299.247 30.698 299.247 28.696C299.247 26.694 298.085 25.224 296.069 25.224ZM296.069 31.23C294.753 31.23 294.109 30.082 294.109 28.696C294.109 27.31 294.753 26.162 296.069 26.162C297.385 26.162 298.029 27.31 298.029 28.696C298.029 30.082 297.385 31.23 296.069 31.23ZM304.269 25.392C304.255 25.392 302.897 29.788 302.631 30.754H302.603C302.407 29.76 301.049 25.392 301.049 25.392H299.887L302.001 32H303.149C303.163 32 304.521 27.59 304.731 26.792C304.927 27.59 306.313 32 306.313 32H307.461L309.575 25.392H308.483C308.483 25.392 307.167 29.662 306.929 30.754H306.901C306.705 29.886 305.263 25.392 305.263 25.392H304.269ZM310.532 22.816C310.532 23.222 310.854 23.572 311.302 23.572C311.75 23.572 312.072 23.222 312.072 22.816C312.072 22.354 311.75 22.046 311.302 22.046C310.854 22.046 310.532 22.354 310.532 22.816ZM310.714 32H311.89V25.392H310.714V32ZM313.932 32H315.108V28.402C315.108 27.016 315.948 26.19 316.886 26.19C317.558 26.19 318.3 26.596 318.3 27.604V32H319.476V27.422C319.476 25.952 318.412 25.224 317.124 25.224C316.144 25.224 315.5 25.672 315.038 26.386V25.392H313.932V32ZM326.077 30.88V31.552C326.077 33.008 325.559 34.03 324.089 34.03C322.969 34.03 322.479 33.484 322.255 32.826L321.163 33.246C321.667 34.464 322.619 34.968 324.075 34.968C326.259 34.968 327.253 33.722 327.253 31.51V25.392H326.147V26.386C325.769 25.784 325.125 25.224 323.977 25.224C322.227 25.224 320.939 26.498 320.939 28.556C320.939 30.614 322.227 31.888 323.977 31.888C325.013 31.888 325.657 31.412 326.077 30.88ZM326.077 28.864C326.077 30.446 324.901 30.922 324.103 30.922C322.899 30.922 322.157 29.9 322.157 28.556C322.157 27.212 322.899 26.19 324.103 26.19C324.901 26.19 326.077 26.68 326.077 28.262V28.864ZM56.938 39.816C56.938 40.222 57.26 40.572 57.708 40.572C58.156 40.572 58.478 40.222 58.478 39.816C58.478 39.354 58.156 39.046 57.708 39.046C57.26 39.046 56.938 39.354 56.938 39.816ZM57.12 49H58.296V42.392H57.12V49ZM60.338 49H61.514V45.402C61.514 44.016 62.354 43.19 63.292 43.19C63.964 43.19 64.706 43.596 64.706 44.604V49H65.882V44.422C65.882 42.952 64.818 42.224 63.53 42.224C62.55 42.224 61.906 42.672 61.444 43.386V42.392H60.338V49ZM66.8722 43.288H67.9922V49H69.1682V43.288H70.7082V42.392H69.1682V41.216C69.1682 40.488 69.5322 40.054 70.2182 40.054C70.6382 40.054 70.9882 40.222 71.1982 40.39L71.7162 39.438C71.3942 39.214 70.7502 39.032 70.1342 39.032C69.0842 39.032 67.9922 39.578 67.9922 41.146V42.392H66.8722V43.288ZM74.4655 42.224C72.4495 42.224 71.2875 43.694 71.2875 45.696C71.2875 47.698 72.4495 49.168 74.4655 49.168C76.4815 49.168 77.6435 47.698 77.6435 45.696C77.6435 43.694 76.4815 42.224 74.4655 42.224ZM74.4655 48.23C73.1495 48.23 72.5055 47.082 72.5055 45.696C72.5055 44.31 73.1495 43.162 74.4655 43.162C75.7815 43.162 76.4255 44.31 76.4255 45.696C76.4255 47.082 75.7815 48.23 74.4655 48.23ZM83.0294 42.378C82.7914 42.266 82.4834 42.224 82.2174 42.224C81.3774 42.224 80.6214 42.63 80.2854 43.428V42.392H79.1794V49H80.3554V45.43C80.3554 44.086 81.1114 43.19 82.0074 43.19C82.3294 43.19 82.5814 43.302 82.7634 43.47L83.0294 42.378ZM84.0243 49H85.2003V45.402C85.2003 44.016 85.9983 43.19 86.8523 43.19C87.4823 43.19 88.1403 43.596 88.1403 44.604V49H89.3163V45.402C89.3163 44.016 90.1143 43.19 90.9823 43.19C91.6123 43.19 92.2563 43.596 92.2563 44.604V49H93.4323V44.422C93.4323 42.952 92.4383 42.224 91.2483 42.224C90.2683 42.224 89.4703 42.826 89.1063 43.428C88.7843 42.658 88.0423 42.224 87.1183 42.224C86.1803 42.224 85.5643 42.672 85.1303 43.386V42.392H84.0243V49ZM94.9004 45.696C94.9004 47.838 96.1604 49.168 97.8684 49.168C98.9744 49.168 99.6044 48.608 99.9684 48.006V49H101.074V42.392H99.9684V43.386C99.6324 42.784 98.9744 42.224 97.8684 42.224C96.1604 42.224 94.9004 43.554 94.9004 45.696ZM97.9944 43.19C98.7364 43.19 99.8984 43.68 99.8984 45.262V46.13C99.8984 47.712 98.7504 48.202 97.9944 48.202C96.8324 48.202 96.1184 47.124 96.1184 45.696C96.1184 44.268 96.8324 43.19 97.9944 43.19ZM105.784 47.978C105.602 48.104 105.364 48.188 105.126 48.188C104.706 48.188 104.44 47.908 104.44 47.432V43.288H105.98V42.392H104.44V39.97L103.264 40.502V42.392H102.144V43.288H103.264V47.544C103.264 48.412 103.81 49.168 104.972 49.168C105.448 49.168 105.896 49.056 106.162 48.902L105.784 47.978ZM107.25 39.816C107.25 40.222 107.572 40.572 108.02 40.572C108.468 40.572 108.79 40.222 108.79 39.816C108.79 39.354 108.468 39.046 108.02 39.046C107.572 39.046 107.25 39.354 107.25 39.816ZM107.432 49H108.608V42.392H107.432V49ZM113.324 42.224C111.308 42.224 110.146 43.694 110.146 45.696C110.146 47.698 111.308 49.168 113.324 49.168C115.34 49.168 116.502 47.698 116.502 45.696C116.502 43.694 115.34 42.224 113.324 42.224ZM113.324 48.23C112.008 48.23 111.364 47.082 111.364 45.696C111.364 44.31 112.008 43.162 113.324 43.162C114.64 43.162 115.284 44.31 115.284 45.696C115.284 47.082 114.64 48.23 113.324 48.23ZM118.038 49H119.214V45.402C119.214 44.016 120.054 43.19 120.992 43.19C121.664 43.19 122.406 43.596 122.406 44.604V49H123.582V44.422C123.582 42.952 122.518 42.224 121.23 42.224C120.25 42.224 119.606 42.672 119.144 43.386V42.392H118.038V49Z" fill="#004FD4"/>
</svg>
