<svg width="400" height="74" viewBox="0 0 400 74" fill="none" xmlns="http://www.w3.org/2000/svg">
<rect width="400" height="74" rx="20" fill="white"/>
<path opacity="0.3" fill-rule="evenodd" clip-rule="evenodd" d="M32 47C37.5228 47 42 42.5228 42 37C42 31.4772 37.5228 27 32 27C26.4772 27 22 31.4772 22 37C22 42.5228 26.4772 47 32 47Z" fill="#FF0000"/>
<rect x="31" y="32" width="2" height="8" rx="1" fill="#FF0000"/>
<rect x="31" y="41" width="2" height="2" rx="0.999999" fill="#FF0000"/>
<path d="M63.098 32V31.02H58.478V27.436H62.706V26.456H58.478V23.18H63V22.2H57.26V32H63.098ZM68.5493 25.378C68.3113 25.266 68.0033 25.224 67.7373 25.224C66.8973 25.224 66.1413 25.63 65.8053 26.428V25.392H64.6993V32H65.8753V28.43C65.8753 27.086 66.6313 26.19 67.5273 26.19C67.8493 26.19 68.1013 26.302 68.2833 26.47L68.5493 25.378ZM73.3942 25.378C73.1562 25.266 72.8482 25.224 72.5822 25.224C71.7422 25.224 70.9862 25.63 70.6502 26.428V25.392H69.5442V32H70.7202V28.43C70.7202 27.086 71.4762 26.19 72.3722 26.19C72.6942 26.19 72.9462 26.302 73.1282 26.47L73.3942 25.378ZM76.9264 25.224C74.9104 25.224 73.7484 26.694 73.7484 28.696C73.7484 30.698 74.9104 32.168 76.9264 32.168C78.9424 32.168 80.1044 30.698 80.1044 28.696C80.1044 26.694 78.9424 25.224 76.9264 25.224ZM76.9264 31.23C75.6104 31.23 74.9664 30.082 74.9664 28.696C74.9664 27.31 75.6104 26.162 76.9264 26.162C78.2424 26.162 78.8864 27.31 78.8864 28.696C78.8864 30.082 78.2424 31.23 76.9264 31.23ZM85.4903 25.378C85.2523 25.266 84.9443 25.224 84.6783 25.224C83.8383 25.224 83.0823 25.63 82.7463 26.428V25.392H81.6403V32H82.8163V28.43C82.8163 27.086 83.5723 26.19 84.4683 26.19C84.7903 26.19 85.0423 26.302 85.2243 26.47L85.4903 25.378ZM89.5802 32H90.7562V28.402C90.7562 27.016 91.5542 26.19 92.4082 26.19C93.0382 26.19 93.6962 26.596 93.6962 27.604V32H94.8722V28.402C94.8722 27.016 95.6702 26.19 96.5382 26.19C97.1682 26.19 97.8122 26.596 97.8122 27.604V32H98.9882V27.422C98.9882 25.952 97.9942 25.224 96.8042 25.224C95.8242 25.224 95.0262 25.826 94.6622 26.428C94.3402 25.658 93.5982 25.224 92.6742 25.224C91.7362 25.224 91.1202 25.672 90.6862 26.386V25.392H89.5802V32ZM105.286 30.068C104.95 30.824 104.53 31.258 103.62 31.258C102.276 31.258 101.716 30.152 101.66 28.906H106.546V28.514C106.546 26.806 105.58 25.224 103.564 25.224C101.646 25.224 100.456 26.694 100.456 28.682C100.456 30.698 101.618 32.168 103.606 32.168C104.978 32.168 105.818 31.496 106.322 30.488L105.286 30.068ZM103.536 26.134C104.558 26.134 105.286 26.862 105.342 28.024H101.702C101.814 26.946 102.486 26.134 103.536 26.134ZM108.707 27.114C108.707 26.442 109.267 26.12 110.009 26.12C110.919 26.12 111.395 26.568 111.493 27.324L112.655 27.086C112.501 25.938 111.479 25.224 110.051 25.224C108.707 25.224 107.531 25.896 107.531 27.17C107.531 28.234 108.203 28.836 109.883 29.102C111.157 29.298 111.591 29.564 111.591 30.18C111.591 30.866 111.031 31.258 110.093 31.258C109.085 31.258 108.595 30.838 108.511 29.942L107.349 30.096C107.489 31.44 108.469 32.168 110.079 32.168C111.745 32.168 112.767 31.37 112.767 30.11C112.767 28.78 111.633 28.346 110.247 28.136C109.211 27.982 108.707 27.744 108.707 27.114ZM114.988 27.114C114.988 26.442 115.548 26.12 116.29 26.12C117.2 26.12 117.676 26.568 117.774 27.324L118.936 27.086C118.782 25.938 117.76 25.224 116.332 25.224C114.988 25.224 113.812 25.896 113.812 27.17C113.812 28.234 114.484 28.836 116.164 29.102C117.438 29.298 117.872 29.564 117.872 30.18C117.872 30.866 117.312 31.258 116.374 31.258C115.366 31.258 114.876 30.838 114.792 29.942L113.63 30.096C113.77 31.44 114.75 32.168 116.36 32.168C118.026 32.168 119.048 31.37 119.048 30.11C119.048 28.78 117.914 28.346 116.528 28.136C115.492 27.982 114.988 27.744 114.988 27.114ZM120.022 28.696C120.022 30.838 121.282 32.168 122.99 32.168C124.096 32.168 124.726 31.608 125.09 31.006V32H126.196V25.392H125.09V26.386C124.754 25.784 124.096 25.224 122.99 25.224C121.282 25.224 120.022 26.554 120.022 28.696ZM123.116 26.19C123.858 26.19 125.02 26.68 125.02 28.262V29.13C125.02 30.712 123.872 31.202 123.116 31.202C121.954 31.202 121.24 30.124 121.24 28.696C121.24 27.268 121.954 26.19 123.116 26.19ZM132.876 30.88V31.552C132.876 33.008 132.358 34.03 130.888 34.03C129.768 34.03 129.278 33.484 129.054 32.826L127.962 33.246C128.466 34.464 129.418 34.968 130.874 34.968C133.058 34.968 134.052 33.722 134.052 31.51V25.392H132.946V26.386C132.568 25.784 131.924 25.224 130.776 25.224C129.026 25.224 127.738 26.498 127.738 28.556C127.738 30.614 129.026 31.888 130.776 31.888C131.812 31.888 132.456 31.412 132.876 30.88ZM132.876 28.864C132.876 30.446 131.7 30.922 130.902 30.922C129.698 30.922 128.956 29.9 128.956 28.556C128.956 27.212 129.698 26.19 130.902 26.19C131.7 26.19 132.876 26.68 132.876 28.262V28.864ZM140.421 30.068C140.085 30.824 139.665 31.258 138.755 31.258C137.411 31.258 136.851 30.152 136.795 28.906H141.681V28.514C141.681 26.806 140.715 25.224 138.699 25.224C136.781 25.224 135.591 26.694 135.591 28.682C135.591 30.698 136.753 32.168 138.741 32.168C140.113 32.168 140.953 31.496 141.457 30.488L140.421 30.068ZM138.671 26.134C139.693 26.134 140.421 26.862 140.477 28.024H136.837C136.949 26.946 137.621 26.134 138.671 26.134ZM148.869 25.224C146.853 25.224 145.691 26.694 145.691 28.696C145.691 30.698 146.853 32.168 148.869 32.168C150.885 32.168 152.047 30.698 152.047 28.696C152.047 26.694 150.885 25.224 148.869 25.224ZM148.869 31.23C147.553 31.23 146.909 30.082 146.909 28.696C146.909 27.31 147.553 26.162 148.869 26.162C150.185 26.162 150.829 27.31 150.829 28.696C150.829 30.082 150.185 31.23 148.869 31.23ZM153.583 32H154.759V28.402C154.759 27.016 155.599 26.19 156.537 26.19C157.209 26.19 157.951 26.596 157.951 27.604V32H159.127V27.422C159.127 25.952 158.063 25.224 156.775 25.224C155.795 25.224 155.151 25.672 154.689 26.386V25.392H153.583V32ZM164.931 27.114C164.931 26.442 165.491 26.12 166.233 26.12C167.143 26.12 167.619 26.568 167.717 27.324L168.879 27.086C168.725 25.938 167.703 25.224 166.275 25.224C164.931 25.224 163.755 25.896 163.755 27.17C163.755 28.234 164.427 28.836 166.107 29.102C167.381 29.298 167.815 29.564 167.815 30.18C167.815 30.866 167.255 31.258 166.317 31.258C165.309 31.258 164.819 30.838 164.735 29.942L163.573 30.096C163.713 31.44 164.693 32.168 166.303 32.168C167.969 32.168 168.991 31.37 168.991 30.11C168.991 28.78 167.857 28.346 166.471 28.136C165.435 27.982 164.931 27.744 164.931 27.114ZM170.287 22.816C170.287 23.222 170.609 23.572 171.057 23.572C171.505 23.572 171.827 23.222 171.827 22.816C171.827 22.354 171.505 22.046 171.057 22.046C170.609 22.046 170.287 22.354 170.287 22.816ZM170.469 32H171.645V25.392H170.469V32ZM178.321 30.88V31.552C178.321 33.008 177.803 34.03 176.333 34.03C175.213 34.03 174.723 33.484 174.499 32.826L173.407 33.246C173.911 34.464 174.863 34.968 176.319 34.968C178.503 34.968 179.497 33.722 179.497 31.51V25.392H178.391V26.386C178.013 25.784 177.369 25.224 176.221 25.224C174.471 25.224 173.183 26.498 173.183 28.556C173.183 30.614 174.471 31.888 176.221 31.888C177.257 31.888 177.901 31.412 178.321 30.88ZM178.321 28.864C178.321 30.446 177.145 30.922 176.347 30.922C175.143 30.922 174.401 29.9 174.401 28.556C174.401 27.212 175.143 26.19 176.347 26.19C177.145 26.19 178.321 26.68 178.321 28.262V28.864ZM181.54 32H182.716V28.402C182.716 27.016 183.556 26.19 184.494 26.19C185.166 26.19 185.908 26.596 185.908 27.604V32H187.084V27.422C187.084 25.952 186.02 25.224 184.732 25.224C183.752 25.224 183.108 25.672 182.646 26.386V25.392H181.54V32ZM191.964 22.816C191.964 23.222 192.286 23.572 192.734 23.572C193.182 23.572 193.504 23.222 193.504 22.816C193.504 22.354 193.182 22.046 192.734 22.046C192.286 22.046 191.964 22.354 191.964 22.816ZM192.146 32H193.322V25.392H192.146V32ZM195.364 32H196.54V28.402C196.54 27.016 197.38 26.19 198.318 26.19C198.99 26.19 199.732 26.596 199.732 27.604V32H200.908V27.422C200.908 25.952 199.844 25.224 198.556 25.224C197.576 25.224 196.932 25.672 196.47 26.386V25.392H195.364V32ZM205.788 22.816C205.788 23.222 206.11 23.572 206.558 23.572C207.006 23.572 207.328 23.222 207.328 22.816C207.328 22.354 207.006 22.046 206.558 22.046C206.11 22.046 205.788 22.354 205.788 22.816ZM205.97 32H207.146V25.392H205.97V32ZM209.93 27.114C209.93 26.442 210.49 26.12 211.232 26.12C212.142 26.12 212.618 26.568 212.716 27.324L213.878 27.086C213.724 25.938 212.702 25.224 211.274 25.224C209.93 25.224 208.754 25.896 208.754 27.17C208.754 28.234 209.426 28.836 211.106 29.102C212.38 29.298 212.814 29.564 212.814 30.18C212.814 30.866 212.254 31.258 211.316 31.258C210.308 31.258 209.818 30.838 209.734 29.942L208.572 30.096C208.712 31.44 209.692 32.168 211.302 32.168C212.968 32.168 213.99 31.37 213.99 30.11C213.99 28.78 212.856 28.346 211.47 28.136C210.434 27.982 209.93 27.744 209.93 27.114ZM216.21 27.114C216.21 26.442 216.77 26.12 217.512 26.12C218.422 26.12 218.898 26.568 218.996 27.324L220.158 27.086C220.004 25.938 218.982 25.224 217.554 25.224C216.21 25.224 215.034 25.896 215.034 27.17C215.034 28.234 215.706 28.836 217.386 29.102C218.66 29.298 219.094 29.564 219.094 30.18C219.094 30.866 218.534 31.258 217.596 31.258C216.588 31.258 216.098 30.838 216.014 29.942L214.852 30.096C214.992 31.44 215.972 32.168 217.582 32.168C219.248 32.168 220.27 31.37 220.27 30.11C220.27 28.78 219.136 28.346 217.75 28.136C216.714 27.982 216.21 27.744 216.21 27.114ZM227.167 25.392H225.991V28.99C225.991 30.376 225.151 31.202 224.241 31.202C223.569 31.202 222.855 30.796 222.855 29.788V25.392H221.679V29.97C221.679 31.44 222.743 32.168 224.003 32.168C224.983 32.168 225.599 31.72 226.061 31.006V32H227.167V25.392ZM233.531 30.068C233.195 30.824 232.775 31.258 231.865 31.258C230.521 31.258 229.961 30.152 229.905 28.906H234.791V28.514C234.791 26.806 233.825 25.224 231.809 25.224C229.891 25.224 228.701 26.694 228.701 28.682C228.701 30.698 229.863 32.168 231.851 32.168C233.223 32.168 234.063 31.496 234.567 30.488L233.531 30.068ZM231.781 26.134C232.803 26.134 233.531 26.862 233.587 28.024H229.947C230.059 26.946 230.731 26.134 231.781 26.134ZM238.801 28.696C238.801 30.838 240.061 32.168 241.769 32.168C242.875 32.168 243.505 31.608 243.869 31.006V32H244.975V25.392H243.869V26.386C243.533 25.784 242.875 25.224 241.769 25.224C240.061 25.224 238.801 26.554 238.801 28.696ZM241.895 26.19C242.637 26.19 243.799 26.68 243.799 28.262V29.13C243.799 30.712 242.651 31.202 241.895 31.202C240.733 31.202 240.019 30.124 240.019 28.696C240.019 27.268 240.733 26.19 241.895 26.19ZM246.044 26.288H247.164V32H248.34V26.288H249.88V25.392H248.34V24.216C248.34 23.488 248.704 23.054 249.39 23.054C249.81 23.054 250.16 23.222 250.37 23.39L250.888 22.438C250.566 22.214 249.922 22.032 249.306 22.032C248.256 22.032 247.164 22.578 247.164 24.146V25.392H246.044V26.288ZM254.174 30.978C253.992 31.104 253.754 31.188 253.516 31.188C253.096 31.188 252.83 30.908 252.83 30.432V26.288H254.37V25.392H252.83V22.97L251.654 23.502V25.392H250.534V26.288H251.654V30.544C251.654 31.412 252.2 32.168 253.362 32.168C253.838 32.168 254.286 32.056 254.552 31.902L254.174 30.978ZM260.011 30.068C259.675 30.824 259.255 31.258 258.345 31.258C257.001 31.258 256.441 30.152 256.385 28.906H261.271V28.514C261.271 26.806 260.305 25.224 258.289 25.224C256.371 25.224 255.181 26.694 255.181 28.682C255.181 30.698 256.343 32.168 258.331 32.168C259.703 32.168 260.543 31.496 261.047 30.488L260.011 30.068ZM258.261 26.134C259.283 26.134 260.011 26.862 260.067 28.024H256.427C256.539 26.946 257.211 26.134 258.261 26.134ZM266.54 25.378C266.302 25.266 265.994 25.224 265.728 25.224C264.888 25.224 264.132 25.63 263.796 26.428V25.392H262.69V32H263.866V28.43C263.866 27.086 264.622 26.19 265.518 26.19C265.84 26.19 266.092 26.302 266.274 26.47L266.54 25.378ZM272.338 23.866C272.338 24.482 272.618 25.028 273.262 25.028C273.808 25.028 274.06 24.608 274.06 24.244C274.06 23.796 273.696 23.474 273.318 23.474C273.262 23.474 273.22 23.474 273.164 23.488V23.404C273.164 22.984 273.57 22.592 273.934 22.578L273.724 22.018C272.576 22.228 272.338 23.236 272.338 23.866ZM270.14 23.866C270.14 24.482 270.42 25.028 271.064 25.028C271.61 25.028 271.862 24.608 271.862 24.244C271.862 23.796 271.498 23.474 271.12 23.474C271.064 23.474 271.022 23.474 270.966 23.488V23.404C270.966 22.984 271.372 22.592 271.736 22.578L271.526 22.018C270.378 22.228 270.14 23.236 270.14 23.866ZM276.553 24.692C276.553 23.698 277.211 23.012 278.639 23.012C280.081 23.012 280.753 23.74 280.921 24.916L282.125 24.608C281.859 23.012 280.599 22.032 278.653 22.032C276.665 22.032 275.293 23.096 275.293 24.804C275.293 26.428 276.441 27.17 278.583 27.478C280.431 27.744 281.047 28.248 281.047 29.312C281.047 30.474 280.249 31.202 278.765 31.202C276.931 31.202 276.315 30.096 276.245 29.06L275.041 29.242C275.111 30.88 276.385 32.168 278.765 32.168C281.005 32.168 282.335 30.964 282.335 29.214C282.335 27.394 281.047 26.722 278.877 26.372C277.099 26.078 276.553 25.7 276.553 24.692ZM283.802 22.816C283.802 23.222 284.124 23.572 284.572 23.572C285.02 23.572 285.342 23.222 285.342 22.816C285.342 22.354 285.02 22.046 284.572 22.046C284.124 22.046 283.802 22.354 283.802 22.816ZM283.984 32H285.16V25.392H283.984V32ZM291.836 30.88V31.552C291.836 33.008 291.318 34.03 289.848 34.03C288.728 34.03 288.238 33.484 288.014 32.826L286.922 33.246C287.426 34.464 288.378 34.968 289.834 34.968C292.018 34.968 293.012 33.722 293.012 31.51V25.392H291.906V26.386C291.528 25.784 290.884 25.224 289.736 25.224C287.986 25.224 286.698 26.498 286.698 28.556C286.698 30.614 287.986 31.888 289.736 31.888C290.772 31.888 291.416 31.412 291.836 30.88ZM291.836 28.864C291.836 30.446 290.66 30.922 289.862 30.922C288.658 30.922 287.916 29.9 287.916 28.556C287.916 27.212 288.658 26.19 289.862 26.19C290.66 26.19 291.836 26.68 291.836 28.262V28.864ZM295.055 32H296.231V28.402C296.231 27.016 297.071 26.19 298.009 26.19C298.681 26.19 299.423 26.596 299.423 27.604V32H300.599V27.422C300.599 25.952 299.535 25.224 298.247 25.224C297.267 25.224 296.623 25.672 296.161 26.386V25.392H295.055V32ZM305.801 32H307.019V22.2H305.801V32ZM309.193 32H310.369V28.402C310.369 27.016 311.209 26.19 312.147 26.19C312.819 26.19 313.561 26.596 313.561 27.604V32H314.737V27.422C314.737 25.952 313.673 25.224 312.385 25.224C311.405 25.224 310.761 25.672 310.299 26.386V25.392H309.193V32ZM319.573 23.194C319.573 22.578 319.293 22.032 318.649 22.032C318.103 22.032 317.851 22.452 317.851 22.816C317.851 23.264 318.215 23.586 318.593 23.586C318.649 23.586 318.691 23.586 318.747 23.572V23.656C318.747 24.076 318.341 24.468 317.977 24.482L318.187 25.042C319.335 24.832 319.573 23.824 319.573 23.194ZM317.375 23.194C317.375 22.578 317.095 22.032 316.451 22.032C315.905 22.032 315.653 22.452 315.653 22.816C315.653 23.264 316.017 23.586 316.395 23.586C316.451 23.586 316.493 23.586 316.549 23.572V23.656C316.549 24.076 316.143 24.468 315.779 24.482L315.989 25.042C317.137 24.832 317.375 23.824 317.375 23.194ZM328.546 30.068C328.21 30.824 327.79 31.258 326.88 31.258C325.536 31.258 324.976 30.152 324.92 28.906H329.806V28.514C329.806 26.806 328.84 25.224 326.824 25.224C324.906 25.224 323.716 26.694 323.716 28.682C323.716 30.698 324.878 32.168 326.866 32.168C328.238 32.168 329.078 31.496 329.582 30.488L328.546 30.068ZM326.796 26.134C327.818 26.134 328.546 26.862 328.602 28.024H324.962C325.074 26.946 325.746 26.134 326.796 26.134ZM332.863 32H334.053L336.587 25.392H335.425C335.425 25.392 333.801 29.886 333.507 30.88H333.479C333.185 29.886 331.575 25.392 331.575 25.392H330.329L332.863 32ZM342.05 30.068C341.714 30.824 341.294 31.258 340.384 31.258C339.04 31.258 338.48 30.152 338.424 28.906H343.31V28.514C343.31 26.806 342.344 25.224 340.328 25.224C338.41 25.224 337.22 26.694 337.22 28.682C337.22 30.698 338.382 32.168 340.37 32.168C341.742 32.168 342.582 31.496 343.086 30.488L342.05 30.068ZM340.3 26.134C341.322 26.134 342.05 26.862 342.106 28.024H338.466C338.578 26.946 339.25 26.134 340.3 26.134ZM344.729 32H345.905V28.402C345.905 27.016 346.745 26.19 347.683 26.19C348.355 26.19 349.097 26.596 349.097 27.604V32H350.273V27.422C350.273 25.952 349.209 25.224 347.921 25.224C346.941 25.224 346.297 25.672 345.835 26.386V25.392H344.729V32ZM354.904 30.978C354.722 31.104 354.484 31.188 354.246 31.188C353.826 31.188 353.56 30.908 353.56 30.432V26.288H355.1V25.392H353.56V22.97L352.384 23.502V25.392H351.264V26.288H352.384V30.544C352.384 31.412 352.93 32.168 354.092 32.168C354.568 32.168 355.016 32.056 355.282 31.902L354.904 30.978ZM356.412 31.3C356.412 31.762 356.748 32.098 357.238 32.098C357.728 32.098 358.064 31.762 358.064 31.3C358.064 30.838 357.728 30.502 357.238 30.502C356.748 30.502 356.412 30.838 356.412 31.3ZM363.196 32H364.414V22.2H363.196V32ZM366.449 31.3C366.449 31.762 366.785 32.098 367.275 32.098C367.765 32.098 368.101 31.762 368.101 31.3C368.101 30.838 367.765 30.502 367.275 30.502C366.785 30.502 366.449 30.838 366.449 31.3ZM373.969 30.068C373.633 30.824 373.213 31.258 372.303 31.258C370.959 31.258 370.399 30.152 370.343 28.906H375.229V28.514C375.229 26.806 374.263 25.224 372.247 25.224C370.329 25.224 369.139 26.694 369.139 28.682C369.139 30.698 370.301 32.168 372.289 32.168C373.661 32.168 374.501 31.496 375.005 30.488L373.969 30.068ZM372.219 26.134C373.241 26.134 373.969 26.862 374.025 28.024H370.385C370.497 26.946 371.169 26.134 372.219 26.134ZM56.938 39.816C56.938 40.222 57.26 40.572 57.708 40.572C58.156 40.572 58.478 40.222 58.478 39.816C58.478 39.354 58.156 39.046 57.708 39.046C57.26 39.046 56.938 39.354 56.938 39.816ZM57.12 49H58.296V42.392H57.12V49ZM60.338 49H61.514V45.402C61.514 44.016 62.354 43.19 63.292 43.19C63.964 43.19 64.706 43.596 64.706 44.604V49H65.882V44.422C65.882 42.952 64.818 42.224 63.53 42.224C62.55 42.224 61.906 42.672 61.444 43.386V42.392H60.338V49ZM67.3449 45.696C67.3449 47.698 68.4929 49.168 70.4669 49.168C71.8529 49.168 72.6229 48.426 73.1269 47.446L72.0349 47.026C71.7689 47.656 71.3909 48.202 70.4529 48.202C69.1929 48.202 68.5629 47.068 68.5629 45.682C68.5629 44.31 69.1929 43.176 70.4389 43.176C71.3069 43.176 71.8109 43.652 72.0209 44.394L73.1129 43.974C72.6929 42.98 71.9089 42.224 70.4809 42.224C68.4789 42.224 67.3449 43.694 67.3449 45.696ZM77.1999 42.224C75.1839 42.224 74.0219 43.694 74.0219 45.696C74.0219 47.698 75.1839 49.168 77.1999 49.168C79.2159 49.168 80.3779 47.698 80.3779 45.696C80.3779 43.694 79.2159 42.224 77.1999 42.224ZM77.1999 48.23C75.8839 48.23 75.2399 47.082 75.2399 45.696C75.2399 44.31 75.8839 43.162 77.1999 43.162C78.5159 43.162 79.1599 44.31 79.1599 45.696C79.1599 47.082 78.5159 48.23 77.1999 48.23ZM85.7638 42.378C85.5258 42.266 85.2178 42.224 84.9518 42.224C84.1118 42.224 83.3558 42.63 83.0198 43.428V42.392H81.9138V49H83.0898V45.43C83.0898 44.086 83.8458 43.19 84.7418 43.19C85.0638 43.19 85.3158 43.302 85.4978 43.47L85.7638 42.378ZM90.6087 42.378C90.3707 42.266 90.0627 42.224 89.7967 42.224C88.9567 42.224 88.2007 42.63 87.8647 43.428V42.392H86.7587V49H87.9347V45.43C87.9347 44.086 88.6907 43.19 89.5867 43.19C89.9087 43.19 90.1607 43.302 90.3427 43.47L90.6087 42.378ZM95.7929 47.068C95.4569 47.824 95.0369 48.258 94.1269 48.258C92.7829 48.258 92.2229 47.152 92.1669 45.906H97.0529V45.514C97.0529 43.806 96.0869 42.224 94.0709 42.224C92.1529 42.224 90.9629 43.694 90.9629 45.682C90.9629 47.698 92.1249 49.168 94.1129 49.168C95.4849 49.168 96.3249 48.496 96.8289 47.488L95.7929 47.068ZM94.0429 43.134C95.0649 43.134 95.7929 43.862 95.8489 45.024H92.2089C92.3209 43.946 92.9929 43.134 94.0429 43.134ZM97.968 45.696C97.968 47.698 99.116 49.168 101.09 49.168C102.476 49.168 103.246 48.426 103.75 47.446L102.658 47.026C102.392 47.656 102.014 48.202 101.076 48.202C99.816 48.202 99.186 47.068 99.186 45.682C99.186 44.31 99.816 43.176 101.062 43.176C101.93 43.176 102.434 43.652 102.644 44.394L103.736 43.974C103.316 42.98 102.532 42.224 101.104 42.224C99.102 42.224 97.968 43.694 97.968 45.696ZM107.949 47.978C107.767 48.104 107.529 48.188 107.291 48.188C106.871 48.188 106.605 47.908 106.605 47.432V43.288H108.145V42.392H106.605V39.97L105.429 40.502V42.392H104.309V43.288H105.429V47.544C105.429 48.412 105.975 49.168 107.137 49.168C107.613 49.168 108.061 49.056 108.327 48.902L107.949 47.978ZM112.188 45.696C112.188 47.698 113.336 49.168 115.31 49.168C116.696 49.168 117.466 48.426 117.97 47.446L116.878 47.026C116.612 47.656 116.234 48.202 115.296 48.202C114.036 48.202 113.406 47.068 113.406 45.682C113.406 44.31 114.036 43.176 115.282 43.176C116.15 43.176 116.654 43.652 116.864 44.394L117.956 43.974C117.536 42.98 116.752 42.224 115.324 42.224C113.322 42.224 112.188 43.694 112.188 45.696ZM123.219 42.378C122.981 42.266 122.673 42.224 122.407 42.224C121.567 42.224 120.811 42.63 120.475 43.428V42.392H119.369V49H120.545V45.43C120.545 44.086 121.301 43.19 122.197 43.19C122.519 43.19 122.771 43.302 122.953 43.47L123.219 42.378ZM128.403 47.068C128.067 47.824 127.647 48.258 126.737 48.258C125.393 48.258 124.833 47.152 124.777 45.906H129.663V45.514C129.663 43.806 128.697 42.224 126.681 42.224C124.763 42.224 123.573 43.694 123.573 45.682C123.573 47.698 124.735 49.168 126.723 49.168C128.095 49.168 128.935 48.496 129.439 47.488L128.403 47.068ZM126.653 43.134C127.675 43.134 128.403 43.862 128.459 45.024H124.819C124.931 43.946 125.603 43.134 126.653 43.134ZM133.617 42.224C131.867 42.224 130.579 43.554 130.579 45.696C130.579 47.838 131.867 49.168 133.617 49.168C134.765 49.168 135.409 48.608 135.787 48.006V49H136.893V39.2H135.717V43.232C135.297 42.7 134.653 42.224 133.617 42.224ZM135.717 46.186C135.717 47.768 134.513 48.202 133.743 48.202C132.539 48.202 131.797 47.124 131.797 45.696C131.797 44.268 132.539 43.19 133.743 43.19C134.513 43.19 135.717 43.624 135.717 45.206V46.186ZM143.261 47.068C142.925 47.824 142.505 48.258 141.595 48.258C140.251 48.258 139.691 47.152 139.635 45.906H144.521V45.514C144.521 43.806 143.555 42.224 141.539 42.224C139.621 42.224 138.431 43.694 138.431 45.682C138.431 47.698 139.593 49.168 141.581 49.168C142.953 49.168 143.793 48.496 144.297 47.488L143.261 47.068ZM141.511 43.134C142.533 43.134 143.261 43.862 143.317 45.024H139.677C139.789 43.946 140.461 43.134 141.511 43.134ZM145.94 49H147.116V45.402C147.116 44.016 147.956 43.19 148.894 43.19C149.566 43.19 150.308 43.596 150.308 44.604V49H151.484V44.422C151.484 42.952 150.42 42.224 149.132 42.224C148.152 42.224 147.508 42.672 147.046 43.386V42.392H145.94V49ZM156.115 47.978C155.933 48.104 155.695 48.188 155.457 48.188C155.037 48.188 154.771 47.908 154.771 47.432V43.288H156.311V42.392H154.771V39.97L153.595 40.502V42.392H152.475V43.288H153.595V47.544C153.595 48.412 154.141 49.168 155.303 49.168C155.779 49.168 156.227 49.056 156.493 48.902L156.115 47.978ZM157.581 39.816C157.581 40.222 157.903 40.572 158.351 40.572C158.799 40.572 159.121 40.222 159.121 39.816C159.121 39.354 158.799 39.046 158.351 39.046C157.903 39.046 157.581 39.354 157.581 39.816ZM157.763 49H158.939V42.392H157.763V49ZM160.477 45.696C160.477 47.838 161.737 49.168 163.445 49.168C164.551 49.168 165.181 48.608 165.545 48.006V49H166.651V42.392H165.545V43.386C165.209 42.784 164.551 42.224 163.445 42.224C161.737 42.224 160.477 43.554 160.477 45.696ZM163.571 43.19C164.313 43.19 165.475 43.68 165.475 45.262V46.13C165.475 47.712 164.327 48.202 163.571 48.202C162.409 48.202 161.695 47.124 161.695 45.696C161.695 44.268 162.409 43.19 163.571 43.19ZM168.697 49H169.873V39.2H168.697V49ZM172.657 44.114C172.657 43.442 173.217 43.12 173.959 43.12C174.869 43.12 175.345 43.568 175.443 44.324L176.605 44.086C176.451 42.938 175.429 42.224 174.001 42.224C172.657 42.224 171.481 42.896 171.481 44.17C171.481 45.234 172.153 45.836 173.833 46.102C175.107 46.298 175.541 46.564 175.541 47.18C175.541 47.866 174.981 48.258 174.043 48.258C173.035 48.258 172.545 47.838 172.461 46.942L171.299 47.096C171.439 48.44 172.419 49.168 174.029 49.168C175.695 49.168 176.717 48.37 176.717 47.11C176.717 45.78 175.583 45.346 174.197 45.136C173.161 44.982 172.657 44.744 172.657 44.114ZM179.572 48.664C179.572 48.048 179.292 47.502 178.648 47.502C178.102 47.502 177.85 47.922 177.85 48.286C177.85 48.734 178.214 49.056 178.592 49.056C178.69 49.056 178.746 49.042 178.746 49.042V49.126C178.746 49.546 178.34 49.938 177.976 49.952L178.186 50.512C179.334 50.302 179.572 49.294 179.572 48.664ZM187.363 47.978C187.181 48.104 186.943 48.188 186.705 48.188C186.285 48.188 186.019 47.908 186.019 47.432V43.288H187.559V42.392H186.019V39.97L184.843 40.502V42.392H183.723V43.288H184.843V47.544C184.843 48.412 185.389 49.168 186.551 49.168C187.027 49.168 187.475 49.056 187.741 48.902L187.363 47.978ZM192.861 42.378C192.623 42.266 192.315 42.224 192.049 42.224C191.209 42.224 190.453 42.63 190.117 43.428V42.392H189.011V49H190.187V45.43C190.187 44.086 190.943 43.19 191.839 43.19C192.161 43.19 192.413 43.302 192.595 43.47L192.861 42.378ZM199.52 42.392H198.386C198.386 42.392 196.664 46.858 196.454 47.586H196.426C196.188 46.858 194.452 42.392 194.452 42.392H193.234L195.838 48.972L195.362 50.134C195.082 50.806 194.774 50.974 194.438 50.974C194.214 50.974 193.976 50.876 193.822 50.778L193.43 51.716C193.682 51.856 194.116 51.968 194.522 51.968C195.292 51.968 195.978 51.576 196.398 50.498L199.52 42.392ZM203.261 45.696C203.261 47.838 204.521 49.168 206.229 49.168C207.335 49.168 207.965 48.608 208.329 48.006V49H209.435V42.392H208.329V43.386C207.993 42.784 207.335 42.224 206.229 42.224C204.521 42.224 203.261 43.554 203.261 45.696ZM206.355 43.19C207.097 43.19 208.259 43.68 208.259 45.262V46.13C208.259 47.712 207.111 48.202 206.355 48.202C205.193 48.202 204.479 47.124 204.479 45.696C204.479 44.268 205.193 43.19 206.355 43.19ZM216.115 47.88V48.552C216.115 50.008 215.597 51.03 214.127 51.03C213.007 51.03 212.517 50.484 212.293 49.826L211.201 50.246C211.705 51.464 212.657 51.968 214.113 51.968C216.297 51.968 217.291 50.722 217.291 48.51V42.392H216.185V43.386C215.807 42.784 215.163 42.224 214.015 42.224C212.265 42.224 210.977 43.498 210.977 45.556C210.977 47.614 212.265 48.888 214.015 48.888C215.051 48.888 215.695 48.412 216.115 47.88ZM216.115 45.864C216.115 47.446 214.939 47.922 214.141 47.922C212.937 47.922 212.195 46.9 212.195 45.556C212.195 44.212 212.937 43.19 214.141 43.19C214.939 43.19 216.115 43.68 216.115 45.262V45.864ZM218.83 45.696C218.83 47.838 220.09 49.168 221.798 49.168C222.904 49.168 223.534 48.608 223.898 48.006V49H225.004V42.392H223.898V43.386C223.562 42.784 222.904 42.224 221.798 42.224C220.09 42.224 218.83 43.554 218.83 45.696ZM221.924 43.19C222.666 43.19 223.828 43.68 223.828 45.262V46.13C223.828 47.712 222.68 48.202 221.924 48.202C220.762 48.202 220.048 47.124 220.048 45.696C220.048 44.268 220.762 43.19 221.924 43.19ZM226.868 39.816C226.868 40.222 227.19 40.572 227.638 40.572C228.086 40.572 228.408 40.222 228.408 39.816C228.408 39.354 228.086 39.046 227.638 39.046C227.19 39.046 226.868 39.354 226.868 39.816ZM227.05 49H228.226V42.392H227.05V49ZM230.268 49H231.444V45.402C231.444 44.016 232.284 43.19 233.222 43.19C233.894 43.19 234.636 43.596 234.636 44.604V49H235.812V44.422C235.812 42.952 234.748 42.224 233.46 42.224C232.48 42.224 231.836 42.672 231.374 43.386V42.392H230.268V49Z" fill="#FF0000"/>
</svg>
