<svg width="416" height="80" viewBox="0 0 416 80" fill="none" xmlns="http://www.w3.org/2000/svg">
<g filter="url(#filter0_d)">
<rect x="8" y="6" width="400" height="64" rx="20" fill="white"/>
<path opacity="0.3" fill-rule="evenodd" clip-rule="evenodd" d="M40 48C45.5228 48 50 43.5228 50 38C50 32.4772 45.5228 28 40 28C34.4772 28 30 32.4772 30 38C30 43.5228 34.4772 48 40 48Z" fill="#169D00"/>
<path d="M44.769 33.8177C45.1458 33.4139 45.7786 33.3921 46.1823 33.7689C46.5861 34.1458 46.6079 34.7786 46.2311 35.1823L39.2311 42.6823C38.8655 43.074 38.2561 43.108 37.8492 42.7593L34.3492 39.7593C33.9299 39.3998 33.8813 38.7685 34.2408 38.3492C34.6002 37.9299 35.2315 37.8813 35.6508 38.2407L38.423 40.6169L44.769 33.8177Z" fill="#169D00"/>
<path d="M68.648 37.51C70.608 37.51 71.98 36.572 71.98 34.584C71.98 32.54 70.678 31.7 68.648 31.7H65.26V41.5H66.478V37.51H68.648ZM70.748 34.584C70.748 35.914 69.95 36.53 68.354 36.53H66.478V32.68H68.354C69.978 32.68 70.748 33.198 70.748 34.584ZM72.5508 38.196C72.5508 40.338 73.8108 41.668 75.5188 41.668C76.6248 41.668 77.2548 41.108 77.6188 40.506V41.5H78.7248V34.892H77.6188V35.886C77.2828 35.284 76.6248 34.724 75.5188 34.724C73.8108 34.724 72.5508 36.054 72.5508 38.196ZM75.6448 35.69C76.3868 35.69 77.5488 36.18 77.5488 37.762V38.63C77.5488 40.212 76.4008 40.702 75.6448 40.702C74.4828 40.702 73.7688 39.624 73.7688 38.196C73.7688 36.768 74.4828 35.69 75.6448 35.69ZM81.5128 36.614C81.5128 35.942 82.0728 35.62 82.8148 35.62C83.7248 35.62 84.2008 36.068 84.2988 36.824L85.4608 36.586C85.3068 35.438 84.2848 34.724 82.8568 34.724C81.5128 34.724 80.3368 35.396 80.3368 36.67C80.3368 37.734 81.0088 38.336 82.6888 38.602C83.9628 38.798 84.3968 39.064 84.3968 39.68C84.3968 40.366 83.8368 40.758 82.8988 40.758C81.8908 40.758 81.4008 40.338 81.3168 39.442L80.1548 39.596C80.2948 40.94 81.2748 41.668 82.8848 41.668C84.5508 41.668 85.5728 40.87 85.5728 39.61C85.5728 38.28 84.4388 37.846 83.0528 37.636C82.0168 37.482 81.5128 37.244 81.5128 36.614ZM87.7932 36.614C87.7932 35.942 88.3532 35.62 89.0952 35.62C90.0052 35.62 90.4812 36.068 90.5792 36.824L91.7412 36.586C91.5872 35.438 90.5653 34.724 89.1372 34.724C87.7932 34.724 86.6172 35.396 86.6172 36.67C86.6172 37.734 87.2892 38.336 88.9692 38.602C90.2433 38.798 90.6772 39.064 90.6772 39.68C90.6772 40.366 90.1172 40.758 89.1792 40.758C88.1712 40.758 87.6812 40.338 87.5972 39.442L86.4352 39.596C86.5752 40.94 87.5552 41.668 89.1652 41.668C90.8312 41.668 91.8532 40.87 91.8532 39.61C91.8532 38.28 90.7192 37.846 89.3332 37.636C88.2972 37.482 87.7932 37.244 87.7932 36.614ZM96.8177 34.892C96.8037 34.892 95.4457 39.288 95.1797 40.254H95.1517C94.9557 39.26 93.5977 34.892 93.5977 34.892H92.4357L94.5497 41.5H95.6977C95.7117 41.5 97.0697 37.09 97.2797 36.292C97.4757 37.09 98.8617 41.5 98.8617 41.5H100.01L102.124 34.892H101.032C101.032 34.892 99.7157 39.162 99.4777 40.254H99.4497C99.2537 39.386 97.8117 34.892 97.8117 34.892H96.8177ZM105.937 34.724C103.921 34.724 102.759 36.194 102.759 38.196C102.759 40.198 103.921 41.668 105.937 41.668C107.953 41.668 109.115 40.198 109.115 38.196C109.115 36.194 107.953 34.724 105.937 34.724ZM105.937 40.73C104.621 40.73 103.977 39.582 103.977 38.196C103.977 36.81 104.621 35.662 105.937 35.662C107.253 35.662 107.897 36.81 107.897 38.196C107.897 39.582 107.253 40.73 105.937 40.73ZM114.5 34.878C114.262 34.766 113.954 34.724 113.688 34.724C112.848 34.724 112.092 35.13 111.756 35.928V34.892H110.65V41.5H111.826V37.93C111.826 36.586 112.582 35.69 113.478 35.69C113.8 35.69 114.052 35.802 114.234 35.97L114.5 34.878ZM117.893 34.724C116.143 34.724 114.855 36.054 114.855 38.196C114.855 40.338 116.143 41.668 117.893 41.668C119.041 41.668 119.685 41.108 120.063 40.506V41.5H121.169V31.7H119.993V35.732C119.573 35.2 118.929 34.724 117.893 34.724ZM119.993 38.686C119.993 40.268 118.789 40.702 118.019 40.702C116.815 40.702 116.073 39.624 116.073 38.196C116.073 36.768 116.815 35.69 118.019 35.69C118.789 35.69 119.993 36.124 119.993 37.706V38.686ZM131.724 34.892H130.548V38.49C130.548 39.876 129.708 40.702 128.798 40.702C128.126 40.702 127.412 40.296 127.412 39.288V34.892H126.236V39.47C126.236 40.94 127.3 41.668 128.56 41.668C129.54 41.668 130.156 41.22 130.618 40.506V41.5H131.724V34.892ZM137.039 41.668C138.789 41.668 140.077 40.338 140.077 38.196C140.077 36.054 138.789 34.724 137.039 34.724C135.891 34.724 135.247 35.284 134.869 35.886V34.892H133.763V44.3H134.939V40.66C135.359 41.192 136.003 41.668 137.039 41.668ZM134.939 37.748C134.939 36.25 136.045 35.69 136.913 35.69C138.117 35.69 138.859 36.768 138.859 38.196C138.859 39.624 138.117 40.702 136.913 40.702C136.045 40.702 134.939 40.142 134.939 38.644V37.748ZM144.259 34.724C142.509 34.724 141.221 36.054 141.221 38.196C141.221 40.338 142.509 41.668 144.259 41.668C145.407 41.668 146.051 41.108 146.429 40.506V41.5H147.535V31.7H146.359V35.732C145.939 35.2 145.295 34.724 144.259 34.724ZM146.359 38.686C146.359 40.268 145.155 40.702 144.385 40.702C143.181 40.702 142.439 39.624 142.439 38.196C142.439 36.768 143.181 35.69 144.385 35.69C145.155 35.69 146.359 36.124 146.359 37.706V38.686ZM149.073 38.196C149.073 40.338 150.333 41.668 152.041 41.668C153.147 41.668 153.777 41.108 154.141 40.506V41.5H155.247V34.892H154.141V35.886C153.805 35.284 153.147 34.724 152.041 34.724C150.333 34.724 149.073 36.054 149.073 38.196ZM152.167 35.69C152.909 35.69 154.071 36.18 154.071 37.762V38.63C154.071 40.212 152.923 40.702 152.167 40.702C151.005 40.702 150.291 39.624 150.291 38.196C150.291 36.768 151.005 35.69 152.167 35.69ZM159.957 40.478C159.775 40.604 159.537 40.688 159.299 40.688C158.879 40.688 158.613 40.408 158.613 39.932V35.788H160.153V34.892H158.613V32.47L157.437 33.002V34.892H156.317V35.788H157.437V40.044C157.437 40.912 157.983 41.668 159.145 41.668C159.621 41.668 160.069 41.556 160.335 41.402L159.957 40.478ZM165.794 39.568C165.458 40.324 165.038 40.758 164.128 40.758C162.784 40.758 162.224 39.652 162.168 38.406H167.054V38.014C167.054 36.306 166.088 34.724 164.072 34.724C162.154 34.724 160.964 36.194 160.964 38.182C160.964 40.198 162.126 41.668 164.114 41.668C165.486 41.668 166.326 40.996 166.83 39.988L165.794 39.568ZM164.044 35.634C165.066 35.634 165.794 36.362 165.85 37.524H162.21C162.322 36.446 162.994 35.634 164.044 35.634ZM171.008 34.724C169.258 34.724 167.97 36.054 167.97 38.196C167.97 40.338 169.258 41.668 171.008 41.668C172.156 41.668 172.8 41.108 173.178 40.506V41.5H174.284V31.7H173.108V35.732C172.688 35.2 172.044 34.724 171.008 34.724ZM173.108 38.686C173.108 40.268 171.904 40.702 171.134 40.702C169.93 40.702 169.188 39.624 169.188 38.196C169.188 36.768 169.93 35.69 171.134 35.69C171.904 35.69 173.108 36.124 173.108 37.706V38.686ZM180.163 36.614C180.163 35.942 180.723 35.62 181.465 35.62C182.375 35.62 182.851 36.068 182.949 36.824L184.111 36.586C183.957 35.438 182.935 34.724 181.507 34.724C180.163 34.724 178.987 35.396 178.987 36.67C178.987 37.734 179.659 38.336 181.339 38.602C182.613 38.798 183.047 39.064 183.047 39.68C183.047 40.366 182.487 40.758 181.549 40.758C180.541 40.758 180.051 40.338 179.967 39.442L178.805 39.596C178.945 40.94 179.925 41.668 181.535 41.668C183.201 41.668 184.223 40.87 184.223 39.61C184.223 38.28 183.089 37.846 181.703 37.636C180.667 37.482 180.163 37.244 180.163 36.614ZM191.12 34.892H189.944V38.49C189.944 39.876 189.104 40.702 188.194 40.702C187.522 40.702 186.808 40.296 186.808 39.288V34.892H185.632V39.47C185.632 40.94 186.696 41.668 187.956 41.668C188.936 41.668 189.552 41.22 190.014 40.506V41.5H191.12V34.892ZM192.654 38.196C192.654 40.198 193.802 41.668 195.776 41.668C197.162 41.668 197.932 40.926 198.436 39.946L197.344 39.526C197.078 40.156 196.7 40.702 195.762 40.702C194.502 40.702 193.872 39.568 193.872 38.182C193.872 36.81 194.502 35.676 195.748 35.676C196.616 35.676 197.12 36.152 197.33 36.894L198.422 36.474C198.002 35.48 197.218 34.724 195.79 34.724C193.788 34.724 192.654 36.194 192.654 38.196ZM199.331 38.196C199.331 40.198 200.479 41.668 202.453 41.668C203.839 41.668 204.609 40.926 205.113 39.946L204.021 39.526C203.755 40.156 203.377 40.702 202.439 40.702C201.179 40.702 200.549 39.568 200.549 38.182C200.549 36.81 201.179 35.676 202.425 35.676C203.293 35.676 203.797 36.152 204.007 36.894L205.099 36.474C204.679 35.48 203.895 34.724 202.467 34.724C200.465 34.724 199.331 36.194 199.331 38.196ZM210.838 39.568C210.502 40.324 210.082 40.758 209.172 40.758C207.828 40.758 207.268 39.652 207.212 38.406H212.098V38.014C212.098 36.306 211.132 34.724 209.116 34.724C207.198 34.724 206.008 36.194 206.008 38.182C206.008 40.198 207.17 41.668 209.158 41.668C210.53 41.668 211.37 40.996 211.874 39.988L210.838 39.568ZM209.088 35.634C210.11 35.634 210.838 36.362 210.894 37.524H207.254C207.366 36.446 208.038 35.634 209.088 35.634ZM214.259 36.614C214.259 35.942 214.819 35.62 215.561 35.62C216.471 35.62 216.947 36.068 217.045 36.824L218.207 36.586C218.053 35.438 217.031 34.724 215.603 34.724C214.259 34.724 213.083 35.396 213.083 36.67C213.083 37.734 213.755 38.336 215.435 38.602C216.709 38.798 217.143 39.064 217.143 39.68C217.143 40.366 216.583 40.758 215.645 40.758C214.637 40.758 214.147 40.338 214.063 39.442L212.901 39.596C213.041 40.94 214.021 41.668 215.631 41.668C217.297 41.668 218.319 40.87 218.319 39.61C218.319 38.28 217.185 37.846 215.799 37.636C214.763 37.482 214.259 37.244 214.259 36.614ZM220.539 36.614C220.539 35.942 221.099 35.62 221.841 35.62C222.751 35.62 223.227 36.068 223.325 36.824L224.487 36.586C224.333 35.438 223.311 34.724 221.883 34.724C220.539 34.724 219.363 35.396 219.363 36.67C219.363 37.734 220.035 38.336 221.715 38.602C222.989 38.798 223.423 39.064 223.423 39.68C223.423 40.366 222.863 40.758 221.925 40.758C220.917 40.758 220.427 40.338 220.343 39.442L219.181 39.596C219.321 40.94 220.301 41.668 221.911 41.668C223.577 41.668 224.599 40.87 224.599 39.61C224.599 38.28 223.465 37.846 222.079 37.636C221.043 37.482 220.539 37.244 220.539 36.614ZM225.238 35.788H226.358V41.5H227.534V35.788H229.074V34.892H227.534V33.716C227.534 32.988 227.898 32.554 228.584 32.554C229.004 32.554 229.354 32.722 229.564 32.89L230.082 31.938C229.76 31.714 229.116 31.532 228.5 31.532C227.45 31.532 226.358 32.078 226.358 33.646V34.892H225.238V35.788ZM235.78 34.892H234.604V38.49C234.604 39.876 233.764 40.702 232.854 40.702C232.182 40.702 231.468 40.296 231.468 39.288V34.892H230.292V39.47C230.292 40.94 231.356 41.668 232.616 41.668C233.596 41.668 234.212 41.22 234.674 40.506V41.5H235.78V34.892ZM237.818 41.5H238.994V31.7H237.818V41.5ZM241.036 41.5H242.212V31.7H241.036V41.5ZM249.644 34.892H248.51C248.51 34.892 246.788 39.358 246.578 40.086H246.55C246.312 39.358 244.576 34.892 244.576 34.892H243.358L245.962 41.472L245.486 42.634C245.206 43.306 244.898 43.474 244.562 43.474C244.338 43.474 244.1 43.376 243.946 43.278L243.554 44.216C243.806 44.356 244.24 44.468 244.646 44.468C245.416 44.468 246.102 44.076 246.522 42.998L249.644 34.892Z" fill="#169D00"/>
</g>
<defs>
<filter id="filter0_d" x="0" y="0" width="416" height="80" filterUnits="userSpaceOnUse" color-interpolation-filters="sRGB">
<feFlood flood-opacity="0" result="BackgroundImageFix"/>
<feColorMatrix in="SourceAlpha" type="matrix" values="0 0 0 0 0 0 0 0 0 0 0 0 0 0 0 0 0 0 127 0"/>
<feOffset dy="2"/>
<feGaussianBlur stdDeviation="4"/>
<feColorMatrix type="matrix" values="0 0 0 0 0 0 0 0 0 0 0 0 0 0 0 0 0 0 0.12 0"/>
<feBlend mode="normal" in2="BackgroundImageFix" result="effect1_dropShadow"/>
<feBlend mode="normal" in="SourceGraphic" in2="effect1_dropShadow" result="shape"/>
</filter>
</defs>
</svg>
