<svg width="320" height="62" viewBox="0 0 320 62" fill="none" xmlns="http://www.w3.org/2000/svg">
<g clip-path="url(#clip0)">
<rect x="0.25" y="0.25" width="84.5" height="61.5" rx="11.75" fill="white"/>
<path d="M12.624 18.45C12.624 21.336 14.236 23.169 16.862 23.169C18.721 23.169 19.904 22.246 20.515 20.764L19.059 20.231C18.682 21.271 17.98 21.895 16.849 21.895C15.133 21.895 14.21 20.478 14.21 18.45C14.21 16.396 15.146 15.005 16.849 15.005C18.045 15.005 18.721 15.694 19.072 16.708L20.541 16.188C19.956 14.628 18.747 13.731 16.888 13.731C14.249 13.731 12.624 15.564 12.624 18.45ZM24.5382 16.669C22.6402 16.669 21.4572 17.982 21.4572 19.919C21.4572 21.856 22.6402 23.169 24.5382 23.169C26.4492 23.169 27.6322 21.856 27.6322 19.919C27.6322 17.982 26.4492 16.669 24.5382 16.669ZM24.5382 22.038C23.4722 22.038 22.9652 21.089 22.9652 19.919C22.9652 18.749 23.4722 17.8 24.5382 17.8C25.6302 17.8 26.1242 18.749 26.1242 19.919C26.1242 21.089 25.6302 22.038 24.5382 22.038ZM31.5399 16.669C29.9409 16.669 28.7189 17.917 28.7189 19.919C28.7189 21.921 29.9149 23.169 31.4879 23.169C32.5539 23.169 33.1779 22.649 33.5159 22.09V23H34.9199V13.9H33.4509V17.618C33.0869 17.098 32.4499 16.669 31.5399 16.669ZM33.4509 20.244C33.4509 21.544 32.5149 21.999 31.7999 21.999C30.8379 21.999 30.2399 21.115 30.2399 19.919C30.2399 18.736 30.8509 17.839 31.8389 17.839C32.5409 17.839 33.4509 18.294 33.4509 19.594V20.244ZM40.7685 21.141C40.5215 21.674 40.1575 22.064 39.4035 22.064C38.3115 22.064 37.9085 21.18 37.8695 20.257H42.2635V19.841C42.2635 18.164 41.3405 16.669 39.3645 16.669C37.5575 16.669 36.3615 17.969 36.3615 19.906C36.3615 21.869 37.5315 23.169 39.4165 23.169C40.7035 23.169 41.5615 22.571 42.0425 21.648L40.7685 21.141ZM39.3515 17.748C40.1705 17.748 40.7425 18.307 40.7815 19.282H37.8955C37.9735 18.385 38.4805 17.748 39.3515 17.748Z" fill="black"/>
<path d="M15.9 36.926C13.677 36.926 12.806 38.954 12.806 41.541C12.806 44.128 13.677 46.156 15.9 46.156C18.123 46.156 18.994 44.128 18.994 41.541C18.994 38.954 18.123 36.926 15.9 36.926ZM15.9 45.259C14.444 45.259 13.95 43.426 13.95 41.541C13.95 39.656 14.444 37.823 15.9 37.823C17.356 37.823 17.85 39.656 17.85 41.541C17.85 43.426 17.356 45.259 15.9 45.259ZM23.6949 36.926C21.4719 36.926 20.6009 38.954 20.6009 41.541C20.6009 44.128 21.4719 46.156 23.6949 46.156C25.9179 46.156 26.7889 44.128 26.7889 41.541C26.7889 38.954 25.9179 36.926 23.6949 36.926ZM23.6949 45.259C22.2389 45.259 21.7449 43.426 21.7449 41.541C21.7449 39.656 22.2389 37.823 23.6949 37.823C25.1509 37.823 25.6449 39.656 25.6449 41.541C25.6449 43.426 25.1509 45.259 23.6949 45.259ZM31.4898 36.926C29.2668 36.926 28.3958 38.954 28.3958 41.541C28.3958 44.128 29.2668 46.156 31.4898 46.156C33.7128 46.156 34.5838 44.128 34.5838 41.541C34.5838 38.954 33.7128 36.926 31.4898 36.926ZM31.4898 45.259C30.0338 45.259 29.5398 43.426 29.5398 41.541C29.5398 39.656 30.0338 37.823 31.4898 37.823C32.9458 37.823 33.4398 39.656 33.4398 41.541C33.4398 43.426 32.9458 45.259 31.4898 45.259Z" fill="#797979"/>
</g>
<rect x="0.25" y="0.25" width="84.5" height="61.5" rx="11.75" stroke="#D4D4D4" stroke-width="0.5"/>
<g clip-path="url(#clip1)">
<rect x="93.25" y="0.25" width="226.5" height="61.5" rx="11.75" fill="white"/>
<path d="M109.355 19.542C111.318 19.542 112.696 18.645 112.696 16.682C112.696 14.719 111.383 13.9 109.355 13.9H106.053V23H107.587V19.542H109.355ZM111.136 16.682C111.136 17.8 110.473 18.294 109.121 18.294H107.587V15.161H109.121C110.486 15.161 111.136 15.551 111.136 16.682ZM114.023 23H115.505V19.737C115.505 18.515 116.194 17.878 116.935 17.878C117.52 17.878 118.079 18.216 118.079 19.1V23H119.561V18.749C119.561 17.358 118.573 16.669 117.377 16.669C116.402 16.669 115.817 17.137 115.505 17.683V13.9H114.023V23ZM124.026 16.669C122.128 16.669 120.945 17.982 120.945 19.919C120.945 21.856 122.128 23.169 124.026 23.169C125.937 23.169 127.119 21.856 127.119 19.919C127.119 17.982 125.937 16.669 124.026 16.669ZM124.026 22.038C122.96 22.038 122.453 21.089 122.453 19.919C122.453 18.749 122.96 17.8 124.026 17.8C125.118 17.8 125.612 18.749 125.612 19.919C125.612 21.089 125.118 22.038 124.026 22.038ZM128.559 23H130.041V19.737C130.041 18.515 130.73 17.878 131.471 17.878C132.043 17.878 132.615 18.216 132.615 19.1V23H134.097V18.749C134.097 17.358 133.109 16.669 131.913 16.669C130.951 16.669 130.34 17.137 129.976 17.774V16.838H128.559V23ZM139.888 21.141C139.641 21.674 139.277 22.064 138.523 22.064C137.431 22.064 137.028 21.18 136.989 20.257H141.383V19.841C141.383 18.164 140.46 16.669 138.484 16.669C136.677 16.669 135.481 17.969 135.481 19.906C135.481 21.869 136.651 23.169 138.536 23.169C139.823 23.169 140.681 22.571 141.162 21.648L139.888 21.141ZM138.471 17.748C139.29 17.748 139.862 18.307 139.901 19.282H137.015C137.093 18.385 137.6 17.748 138.471 17.748ZM145.777 23H147.22V16.305H147.259C148.273 17.917 151.497 23 151.497 23H153.109V13.9H151.666V20.595H151.627C150.691 19.1 147.389 13.9 147.389 13.9H145.777V23ZM160.5 16.838H159.031V20.101C159.031 21.323 158.342 21.96 157.627 21.96C157.055 21.96 156.509 21.622 156.509 20.738V16.838H155.04V21.102C155.04 22.48 156.015 23.169 157.185 23.169C158.134 23.169 158.719 22.714 159.096 22.077V23H160.5V16.838ZM162.367 23H163.849V19.737C163.849 18.515 164.486 17.878 165.162 17.878C165.695 17.878 166.202 18.216 166.202 19.1V23H167.684V19.737C167.684 18.515 168.321 17.878 169.01 17.878C169.543 17.878 170.037 18.216 170.037 19.1V23H171.519V18.736C171.519 17.358 170.583 16.669 169.465 16.669C168.542 16.669 167.84 17.228 167.489 17.774C167.164 17.072 166.475 16.669 165.617 16.669C164.72 16.669 164.135 17.137 163.784 17.774V16.838H162.367V23ZM176.742 16.669C175.819 16.669 175.169 17.111 174.805 17.631V13.9H173.323V23H174.74V22.09C175.078 22.649 175.689 23.169 176.742 23.169C178.328 23.169 179.524 21.921 179.524 19.919C179.524 17.917 178.328 16.669 176.742 16.669ZM174.792 19.62C174.792 18.333 175.702 17.839 176.43 17.839C177.405 17.839 178.016 18.736 178.016 19.919C178.016 21.115 177.405 21.999 176.43 21.999C175.702 21.999 174.792 21.505 174.792 20.218V19.62ZM185.019 21.141C184.772 21.674 184.408 22.064 183.654 22.064C182.562 22.064 182.159 21.18 182.12 20.257H186.514V19.841C186.514 18.164 185.591 16.669 183.615 16.669C181.808 16.669 180.612 17.969 180.612 19.906C180.612 21.869 181.782 23.169 183.667 23.169C184.954 23.169 185.812 22.571 186.293 21.648L185.019 21.141ZM183.602 17.748C184.421 17.748 184.993 18.307 185.032 19.282H182.146C182.224 18.385 182.731 17.748 183.602 17.748ZM191.863 16.812C191.616 16.708 191.33 16.669 191.083 16.669C190.238 16.669 189.601 17.059 189.263 17.839V16.838H187.872V23H189.354V19.893C189.354 18.567 190.134 17.943 190.849 17.943C191.109 17.943 191.382 18.021 191.564 18.177L191.863 16.812Z" fill="black"/>
<path d="M111.591 46V45.09H107.301V41.762H111.227V40.852H107.301V37.81H111.5V36.9H106.17V46H111.591ZM113.264 46H114.356V42.659C114.356 41.372 115.136 40.605 116.007 40.605C116.631 40.605 117.32 40.982 117.32 41.918V46H118.412V41.749C118.412 40.384 117.424 39.708 116.228 39.708C115.318 39.708 114.72 40.124 114.291 40.787V39.864H113.264V46ZM122.897 45.051C122.728 45.168 122.507 45.246 122.286 45.246C121.896 45.246 121.649 44.986 121.649 44.544V40.696H123.079V39.864H121.649V37.615L120.557 38.109V39.864H119.517V40.696H120.557V44.648C120.557 45.454 121.064 46.156 122.143 46.156C122.585 46.156 123.001 46.052 123.248 45.909L122.897 45.051ZM128.503 44.206C128.191 44.908 127.801 45.311 126.956 45.311C125.708 45.311 125.188 44.284 125.136 43.127H129.673V42.763C129.673 41.177 128.776 39.708 126.904 39.708C125.123 39.708 124.018 41.073 124.018 42.919C124.018 44.791 125.097 46.156 126.943 46.156C128.217 46.156 128.997 45.532 129.465 44.596L128.503 44.206ZM126.878 40.553C127.827 40.553 128.503 41.229 128.555 42.308H125.175C125.279 41.307 125.903 40.553 126.878 40.553ZM134.752 39.851C134.531 39.747 134.245 39.708 133.998 39.708C133.218 39.708 132.516 40.085 132.204 40.826V39.864H131.177V46H132.269V42.685C132.269 41.437 132.971 40.605 133.803 40.605C134.102 40.605 134.336 40.709 134.505 40.865L134.752 39.851ZM139.051 46H140.104V38.603H140.13C141.196 40.28 144.914 46 144.914 46H146.11V36.9H145.057V44.297H145.031C144.056 42.763 140.247 36.9 140.247 36.9H139.051V46ZM153.346 39.864H152.254V43.205C152.254 44.492 151.474 45.259 150.629 45.259C150.005 45.259 149.342 44.882 149.342 43.946V39.864H148.25V44.115C148.25 45.48 149.238 46.156 150.408 46.156C151.318 46.156 151.89 45.74 152.319 45.077V46H153.346V39.864ZM155.425 46H156.517V42.659C156.517 41.372 157.258 40.605 158.051 40.605C158.636 40.605 159.247 40.982 159.247 41.918V46H160.339V42.659C160.339 41.372 161.08 40.605 161.886 40.605C162.471 40.605 163.069 40.982 163.069 41.918V46H164.161V41.749C164.161 40.384 163.238 39.708 162.133 39.708C161.223 39.708 160.482 40.267 160.144 40.826C159.845 40.111 159.156 39.708 158.298 39.708C157.427 39.708 156.855 40.124 156.452 40.787V39.864H155.425V46ZM169.22 39.708C168.258 39.708 167.66 40.15 167.27 40.644V36.9H166.178V46H167.205V45.077C167.556 45.636 168.154 46.156 169.22 46.156C170.845 46.156 172.041 44.921 172.041 42.932C172.041 40.943 170.845 39.708 169.22 39.708ZM167.27 42.516C167.27 41.125 168.297 40.605 169.103 40.605C170.221 40.605 170.91 41.606 170.91 42.932C170.91 44.258 170.221 45.259 169.103 45.259C168.297 45.259 167.27 44.739 167.27 43.348V42.516ZM177.774 44.206C177.462 44.908 177.072 45.311 176.227 45.311C174.979 45.311 174.459 44.284 174.407 43.127H178.944V42.763C178.944 41.177 178.047 39.708 176.175 39.708C174.394 39.708 173.289 41.073 173.289 42.919C173.289 44.791 174.368 46.156 176.214 46.156C177.488 46.156 178.268 45.532 178.736 44.596L177.774 44.206ZM176.149 40.553C177.098 40.553 177.774 41.229 177.826 42.308H174.446C174.55 41.307 175.174 40.553 176.149 40.553ZM184.022 39.851C183.801 39.747 183.515 39.708 183.268 39.708C182.488 39.708 181.786 40.085 181.474 40.826V39.864H180.447V46H181.539V42.685C181.539 41.437 182.241 40.605 183.073 40.605C183.372 40.605 183.606 40.709 183.775 40.865L184.022 39.851Z" fill="#797979"/>
</g>
<rect x="93.25" y="0.25" width="226.5" height="61.5" rx="11.75" stroke="#D4D4D4" stroke-width="0.5"/>
<path d="M68.6464 29.1464C68.8417 28.9512 69.1583 28.9512 69.3536 29.1464C69.5488 29.3417 69.5488 29.6583 69.3536 29.8536L66.3536 32.8536C66.1643 33.0428 65.8595 33.0495 65.6621 32.8686L62.6621 30.1186C62.4586 29.932 62.4448 29.6157 62.6314 29.4121C62.818 29.2086 63.1343 29.1948 63.3379 29.3814L65.985 31.8079L68.6464 29.1464Z" fill="black"/>
<defs>
<clipPath id="clip0">
</clipPath>
<clipPath id="clip1">
</clipPath>
</defs>
</svg>
