<svg width="163" height="14" viewBox="0 0 163 14" fill="none" xmlns="http://www.w3.org/2000/svg">
<path d="M8.54176 13V11.254H2.56576V7.384H8.03776V5.638H2.56576V2.146H8.43376V0.399999H0.459755V13H8.54176ZM10.4513 13H12.5033V8.482C12.5033 6.79 13.4573 5.908 14.4833 5.908C15.2753 5.908 16.0673 6.376 16.0673 7.6V13H18.1193V7.114C18.1193 5.188 16.7513 4.234 15.0953 4.234C13.7633 4.234 12.9173 4.882 12.4133 5.764V4.468H10.4513V13ZM24.4472 11.272C24.1772 11.416 23.9072 11.56 23.5472 11.56C23.0612 11.56 22.7372 11.29 22.7372 10.552V5.98H24.6632V4.468H22.7372V1.102L20.7032 2.038V4.468H19.2632V5.98H20.7032V10.804C20.7032 12.37 21.6752 13.234 23.2592 13.234C23.9252 13.234 24.5732 13.09 25.0052 12.874L24.4472 11.272ZM31.8366 10.426C31.4946 11.164 30.9906 11.704 29.9466 11.704C28.4346 11.704 27.8766 10.48 27.8226 9.202H33.9066V8.626C33.9066 6.304 32.6286 4.234 29.8926 4.234C27.3906 4.234 25.7346 6.034 25.7346 8.716C25.7346 11.434 27.3546 13.234 29.9646 13.234C31.7466 13.234 32.9346 12.406 33.6006 11.128L31.8366 10.426ZM29.8746 5.728C31.0086 5.728 31.8006 6.502 31.8546 7.852H27.8586C27.9666 6.61 28.6686 5.728 29.8746 5.728ZM41.1116 4.432C40.7696 4.288 40.3736 4.234 40.0316 4.234C38.8616 4.234 37.9796 4.774 37.5116 5.854V4.468H35.5856V13H37.6376V8.698C37.6376 6.862 38.7176 5.998 39.7076 5.998C40.0676 5.998 40.4456 6.106 40.6976 6.322L41.1116 4.432ZM50.8708 8.212C53.5888 8.212 55.4968 6.97 55.4968 4.252C55.4968 1.534 53.6788 0.399999 50.8708 0.399999H46.2988V13H48.4228V8.212H50.8708ZM53.3368 4.252C53.3368 5.8 52.4188 6.484 50.5468 6.484H48.4228V2.146H50.5468C52.4368 2.146 53.3368 2.686 53.3368 4.252ZM57.1341 13H59.1861V8.482C59.1861 6.79 60.1401 5.908 61.1661 5.908C61.9761 5.908 62.7501 6.376 62.7501 7.6V13H64.8021V7.114C64.8021 5.188 63.4341 4.234 61.7781 4.234C60.4281 4.234 59.6181 4.882 59.1861 5.638V0.399999H57.1341V13ZM70.7838 4.234C68.1558 4.234 66.5178 6.052 66.5178 8.734C66.5178 11.416 68.1558 13.234 70.7838 13.234C73.4298 13.234 75.0678 11.416 75.0678 8.734C75.0678 6.052 73.4298 4.234 70.7838 4.234ZM70.7838 11.668C69.3078 11.668 68.6058 10.354 68.6058 8.734C68.6058 7.114 69.3078 5.8 70.7838 5.8C72.2958 5.8 72.9798 7.114 72.9798 8.734C72.9798 10.354 72.2958 11.668 70.7838 11.668ZM76.861 13H78.913V8.482C78.913 6.79 79.867 5.908 80.893 5.908C81.685 5.908 82.477 6.376 82.477 7.6V13H84.529V7.114C84.529 5.188 83.161 4.234 81.505 4.234C80.173 4.234 79.327 4.882 78.823 5.764V4.468H76.861V13ZM92.3468 10.426C92.0048 11.164 91.5008 11.704 90.4568 11.704C88.9448 11.704 88.3868 10.48 88.3328 9.202H94.4168V8.626C94.4168 6.304 93.1388 4.234 90.4028 4.234C87.9008 4.234 86.2448 6.034 86.2448 8.716C86.2448 11.434 87.8648 13.234 90.4748 13.234C92.2568 13.234 93.4448 12.406 94.1108 11.128L92.3468 10.426ZM90.3848 5.728C91.5188 5.728 92.3108 6.502 92.3648 7.852H88.3688C88.4768 6.61 89.1788 5.728 90.3848 5.728ZM100.101 13H102.099V3.73H102.153C103.557 5.962 108.021 13 108.021 13H110.253V0.399999H108.255V9.67H108.201C106.905 7.6 102.333 0.399999 102.333 0.399999H100.101V13ZM120.287 4.468H118.253V8.986C118.253 10.678 117.299 11.56 116.309 11.56C115.517 11.56 114.761 11.092 114.761 9.868V4.468H112.727V10.372C112.727 12.28 114.077 13.234 115.697 13.234C117.011 13.234 117.821 12.604 118.343 11.722V13H120.287V4.468ZM122.672 13H124.724V8.482C124.724 6.79 125.606 5.908 126.542 5.908C127.28 5.908 127.982 6.376 127.982 7.6V13H130.034V8.482C130.034 6.79 130.916 5.908 131.87 5.908C132.608 5.908 133.292 6.376 133.292 7.6V13H135.344V7.096C135.344 5.188 134.048 4.234 132.5 4.234C131.222 4.234 130.25 5.008 129.764 5.764C129.314 4.792 128.36 4.234 127.172 4.234C125.93 4.234 125.12 4.882 124.634 5.764V4.468H122.672V13ZM142.376 4.234C141.098 4.234 140.198 4.846 139.694 5.566V0.399999H137.642V13H139.604V11.74C140.072 12.514 140.918 13.234 142.376 13.234C144.572 13.234 146.228 11.506 146.228 8.734C146.228 5.962 144.572 4.234 142.376 4.234ZM139.676 8.32C139.676 6.538 140.936 5.854 141.944 5.854C143.294 5.854 144.14 7.096 144.14 8.734C144.14 10.39 143.294 11.614 141.944 11.614C140.936 11.614 139.676 10.93 139.676 9.148V8.32ZM153.637 10.426C153.295 11.164 152.791 11.704 151.747 11.704C150.235 11.704 149.677 10.48 149.623 9.202H155.707V8.626C155.707 6.304 154.429 4.234 151.693 4.234C149.191 4.234 147.535 6.034 147.535 8.716C147.535 11.434 149.155 13.234 151.765 13.234C153.547 13.234 154.735 12.406 155.401 11.128L153.637 10.426ZM151.675 5.728C152.809 5.728 153.601 6.502 153.655 7.852H149.659C149.767 6.61 150.469 5.728 151.675 5.728ZM162.912 4.432C162.57 4.288 162.174 4.234 161.832 4.234C160.662 4.234 159.78 4.774 159.312 5.854V4.468H157.386V13H159.438V8.698C159.438 6.862 160.518 5.998 161.508 5.998C161.868 5.998 162.246 6.106 162.498 6.322L162.912 4.432Z" fill="black"/>
</svg>
